<svg width="17" height="16" viewBox="0 0 17 16" fill="none" xmlns="http://www.w3.org/2000/svg">
<path d="M2.02637 5.18673V11.6734C2.02637 12.9401 2.92637 13.4601 4.0197 12.8334L5.58637 11.9401C5.92637 11.7467 6.49303 11.7267 6.84637 11.9067L10.3464 13.6601C10.6997 13.8334 11.2664 13.8201 11.6064 13.6267L14.493 11.9734C14.8597 11.7601 15.1664 11.2401 15.1664 10.8134V4.32673C15.1664 3.06007 14.2664 2.54007 13.173 3.16673L11.6064 4.06007C11.2664 4.2534 10.6997 4.2734 10.3464 4.0934L6.84637 2.34673C6.49303 2.1734 5.92637 2.18673 5.58637 2.38007L2.6997 4.0334C2.32637 4.24673 2.02637 4.76673 2.02637 5.18673Z" stroke="#4D4D4D" stroke-linecap="round" stroke-linejoin="round"/>
<path d="M6.20703 2.66675V11.3334" stroke="#4D4D4D" stroke-linecap="round" stroke-linejoin="round"/>
<path d="M10.9863 4.41333V13.3333" stroke="#4D4D4D" stroke-linecap="round" stroke-linejoin="round"/>
</svg>
