<svg width="16" height="16" viewBox="0 0 16 16" fill="none" xmlns="http://www.w3.org/2000/svg">
<path d="M13.7477 5.63317C13.0477 2.55317 10.361 1.1665 8.00104 1.1665H7.99437C5.64104 1.1665 2.94771 2.5465 2.24771 5.6265C1.46771 9.0665 3.57437 11.9798 5.48104 13.8132C6.15685 14.4673 7.06051 14.8331 8.00104 14.8332C8.90771 14.8332 9.81437 14.4932 10.5144 13.8132C12.421 11.9798 14.5277 9.07317 13.7477 5.63317ZM8.00104 8.97317C7.72526 8.97317 7.45219 8.91885 7.19741 8.81332C6.94262 8.70778 6.71112 8.5531 6.51612 8.35809C6.32111 8.16309 6.16643 7.93159 6.06089 7.67681C5.95536 7.42202 5.90104 7.14895 5.90104 6.87317C5.90104 6.59739 5.95536 6.32432 6.06089 6.06954C6.16643 5.81475 6.32111 5.58325 6.51612 5.38825C6.71112 5.19324 6.94262 5.03856 7.19741 4.93302C7.45219 4.82749 7.72526 4.77317 8.00104 4.77317C8.55799 4.77317 9.09214 4.99442 9.48596 5.38825C9.87979 5.78207 10.101 6.31622 10.101 6.87317C10.101 7.43013 9.87979 7.96427 9.48596 8.35809C9.09214 8.75192 8.55799 8.97317 8.00104 8.97317Z" fill="#4D4D4D"/>
</svg>
