<svg width="16" height="16" viewBox="0 0 16 16" fill="none" xmlns="http://www.w3.org/2000/svg">
<path d="M13.6673 7.53349V4.6935C13.6673 2.00684 13.0406 1.3335 10.5206 1.3335H5.48065C2.96065 1.3335 2.33398 2.00684 2.33398 4.6935V12.2002C2.33398 13.9735 3.30732 14.3935 4.48732 13.1268L4.49398 13.1202C5.04064 12.5402 5.87398 12.5868 6.34731 13.2202L7.02065 14.1202" stroke="#1A1A1A" stroke-linecap="round" stroke-linejoin="round"/>
<path d="M5.33398 4.6665H10.6673" stroke="#1A1A1A" stroke-linecap="round" stroke-linejoin="round"/>
<path d="M6 7.33325H10" stroke="#1A1A1A" stroke-linecap="round" stroke-linejoin="round"/>
<path d="M12.14 9.84685L9.78003 12.2069C9.6867 12.3002 9.60002 12.4735 9.58002 12.6002L9.45335 13.5002C9.40669 13.8269 9.63336 14.0535 9.96003 14.0069L10.86 13.8802C10.9867 13.8602 11.1667 13.7735 11.2534 13.6802L13.6134 11.3202C14.02 10.9135 14.2134 10.4402 13.6134 9.8402C13.02 9.24686 12.5467 9.44018 12.14 9.84685Z" stroke="#1A1A1A" stroke-miterlimit="10" stroke-linecap="round" stroke-linejoin="round"/>
<path d="M11.7988 10.1868C11.9988 10.9068 12.5588 11.4668 13.2788 11.6668" stroke="#1A1A1A" stroke-miterlimit="10" stroke-linecap="round" stroke-linejoin="round"/>
</svg>
