<svg width="32" height="24" viewBox="0 0 32 24" fill="none" xmlns="http://www.w3.org/2000/svg">
<g clip-path="url(#clip0_299_31615)">
<path d="M0 24H32V0H0V24Z" fill="#005430"/>
<path d="M23.9983 9.53291C23.9961 9.11131 23.8507 7.97568 23.8138 7.5947C23.7769 7.21373 23.7398 6.8681 23.7488 6.78717C23.7576 6.70907 23.8644 6.89576 23.9209 6.91085C23.9501 6.90426 23.937 6.78636 23.884 6.68567C23.848 6.61729 23.7255 6.36162 23.6512 6.2118C23.6162 6.14089 23.6085 6.09977 23.5916 6.09106C23.5749 6.08234 23.4396 6.38937 23.4544 6.42341C23.4913 6.48581 23.5166 6.51559 23.5224 6.6258C23.5282 6.73601 23.5788 7.52288 23.6434 8.11932C23.692 8.56928 23.7987 9.53868 23.8025 10.1414C23.8035 10.338 23.7841 10.5254 23.7609 10.6037C23.7012 10.7267 23.6079 10.8376 23.2604 11.0663C22.8698 11.3235 22.3486 11.5376 22.1246 11.6808C21.9854 11.7701 22.0315 11.7821 22.1528 11.743C22.2737 11.7039 22.8992 11.5786 23.203 11.4341C23.4883 11.2982 23.6734 11.0708 23.8139 10.739C23.9875 10.3289 24.0007 9.98084 23.9983 9.53291Z" fill="white"/>
<path d="M22.7895 6.3307C22.8197 6.31753 23.0697 6.30304 23.137 6.31864C23.0928 6.38975 22.793 6.54717 22.7917 6.57604C22.7999 6.59548 22.9988 6.54008 23.0615 6.50928C23.1025 6.48153 23.1299 6.43858 23.1602 6.40292C23.2319 6.31013 23.3169 6.13803 23.2955 6.11645C23.2608 6.08161 22.92 6.10329 22.8751 6.11048C22.845 6.11534 22.7686 6.26931 22.7546 6.30882C22.7409 6.34832 22.7593 6.34386 22.7895 6.3307Z" fill="white"/>
<path d="M23.3002 8.82933C23.3523 8.63079 23.3652 8.3899 23.2943 8.13636C23.2214 7.87532 23.0405 7.71618 22.91 7.63464L22.8867 7.88595C22.8867 7.88595 23.0697 7.98826 23.1949 8.24586C23.2741 8.40925 23.3071 8.64031 23.2445 8.8979C23.2341 8.96182 23.2747 8.92657 23.3002 8.82933Z" fill="white"/>
<path d="M21.3646 10.0894C21.4115 9.91066 21.423 9.69378 21.3593 9.46546C21.2937 9.23035 21.1308 9.08702 21.0132 9.01388L20.9922 9.24007C20.9922 9.24007 21.157 9.33225 21.2696 9.56402C21.3411 9.711 21.3707 9.91937 21.3145 10.1512C21.3052 10.2086 21.3417 10.177 21.3646 10.0894Z" fill="white"/>
<path d="M14.6442 6.66763C14.7196 6.82272 14.7509 7.04233 14.6915 7.28696C14.6816 7.34763 14.72 7.31431 14.7444 7.22193C14.7937 7.03351 14.806 6.80458 14.7386 6.5636C14.6693 6.31552 14.4975 6.16449 14.3735 6.0872L14.3516 6.32586C14.3516 6.32586 14.5254 6.423 14.6442 6.66763Z" fill="white"/>
<path d="M10.107 6.74791C10.1703 6.91485 10.1746 7.14023 10.0724 7.37767C10.0525 7.43733 10.1009 7.40907 10.1415 7.31983C10.2245 7.1374 10.271 6.90907 10.229 6.65685C10.1858 6.39753 10.0127 6.22076 9.88304 6.12504L9.82422 6.36197C9.82422 6.36197 10.0072 6.48474 10.107 6.74791Z" fill="white"/>
<path d="M11.361 10.4794C11.4414 10.3115 11.4749 10.1984 11.5107 9.9995C11.5419 9.82446 11.544 9.62227 11.5327 9.41643C11.7734 9.30602 12.0603 9.12278 12.1567 9.1093C12.0908 9.36396 12.2482 9.63878 12.5661 9.60292C12.5904 9.89091 12.6113 10.1438 12.6239 10.2939C12.6498 10.6014 12.6459 10.989 12.6452 11.0563C12.6441 11.124 12.6876 11.1112 12.7323 10.9605C12.7919 10.7587 12.8103 10.2318 12.7887 9.88331C12.7835 9.79619 12.7748 9.67859 12.7642 9.54457C12.9702 9.4373 13.0045 9.23025 13.0816 9.14202C13.1511 9.41603 13.5338 9.4532 13.652 9.39455C13.7984 9.32172 13.8464 9.19075 13.8841 8.88675C13.9219 8.58286 13.8119 8.4605 13.7725 8.42738C13.7686 8.46415 13.6728 8.82132 13.6728 8.82132C13.6728 8.82132 13.7637 8.9293 13.7682 8.98238C13.6942 9.05774 13.5381 9.0624 13.407 9.01439C13.2758 8.96637 13.2356 8.87804 13.2434 8.81878C13.251 8.75932 13.3004 8.70523 13.302 8.6328C13.3035 8.56038 13.2726 8.58135 13.2201 8.64547C13.1676 8.70969 13.1338 8.76743 13.0611 8.90529C13.0017 9.01803 12.9053 9.1556 12.7352 9.1949C12.7072 8.86386 12.6751 8.51165 12.6537 8.29042C12.6425 8.17363 12.5306 7.16431 12.5226 7.05136C12.5157 6.953 12.5028 6.83702 12.5049 6.78252C12.5071 6.73917 12.5312 6.75639 12.5686 6.80177C12.6061 6.84705 12.6716 6.92606 12.6829 6.91988C12.7211 6.89881 12.6821 6.76763 12.6321 6.65013C12.5822 6.53232 12.412 6.06757 12.3763 6.04843C12.3579 6.0387 12.2429 6.32476 12.2361 6.38108C12.2539 6.41634 12.3005 6.47175 12.3021 6.62936C12.3027 6.67333 12.3279 7.08783 12.3627 7.47975C12.3932 7.82588 12.4336 8.15428 12.4375 8.19247C12.4653 8.45665 12.499 8.82902 12.531 9.1951C12.3465 9.1556 12.2974 9.01864 12.3015 8.94054C12.3061 8.85241 12.3415 8.75294 12.3245 8.73045C12.289 8.70645 12.0775 8.83945 11.7825 8.98238C11.6995 9.02249 11.606 9.06554 11.5074 9.10637C11.4816 8.85687 11.4477 8.61964 11.4341 8.43821L11.4325 8.41806C11.6265 8.40398 11.7853 8.29376 11.8576 8.18882C11.9478 8.05764 12.011 7.78769 12.0171 7.58084C12.0232 7.37379 11.8747 6.99524 11.8394 6.87491C11.8037 6.75446 11.7853 6.671 11.7822 6.62936C11.779 6.58773 11.8624 6.67758 11.9149 6.6952C11.9505 6.70321 11.9382 6.6166 11.8948 6.55714C11.8516 6.49788 11.6183 6.09948 11.6019 6.12744C11.5919 6.14385 11.4984 6.4369 11.4923 6.48177C11.5291 6.50912 11.5721 6.58449 11.5751 6.65671C11.5783 6.72894 11.6297 7.0465 11.6866 7.22296C11.7438 7.39942 11.8656 7.73795 11.8732 7.83104C11.7863 7.90003 11.5883 8.01682 11.3924 8.00983C11.3589 7.70108 11.3165 7.34249 11.2938 7.08854C11.285 6.99038 11.2844 6.88564 11.2858 6.83094C11.2869 6.78759 11.3146 6.79356 11.3528 6.83813C11.3912 6.8827 11.45 6.94753 11.4621 6.94287C11.4884 6.93305 11.4656 6.83469 11.4135 6.7179C11.3614 6.6011 11.1543 6.10708 11.118 6.08864C11.0996 6.07922 11.0069 6.35667 11.001 6.4133C11.0195 6.44835 11.067 6.50254 11.0716 6.66016C11.0753 6.78566 11.1297 7.40073 11.1762 7.94247C10.9824 7.82973 10.9163 7.66856 10.8923 7.398C10.8756 7.20939 10.8739 6.86194 10.8141 6.57132C10.7804 6.40702 10.7094 6.24008 10.6253 6.15144C10.6052 6.20604 10.5156 6.54123 10.5156 6.54123C10.5449 6.63747 10.6357 6.96151 10.6326 7.24231C10.6296 7.5231 10.6099 7.79761 10.3302 7.98674C10.0507 8.17596 9.63144 8.10069 9.52791 7.80552C9.42439 7.51014 9.65452 6.76956 9.6515 6.59472C9.64838 6.41988 9.62063 6.39577 9.55567 6.42464C9.49081 6.45351 9.35807 6.62207 9.24373 6.89628C9.1294 7.17069 9.07856 7.51054 9.0136 7.7416C8.94884 7.97266 8.84512 8.20675 8.68462 8.19379C8.52412 8.18102 8.43774 8.01581 8.38836 7.77685C8.33889 7.53769 8.36918 7.22276 8.38262 7.14202C8.41612 6.93984 8.3385 6.98127 8.29097 7.29873C8.26156 7.49454 8.23234 7.80724 8.33587 8.13453C8.4392 8.46182 8.61538 8.58388 8.76974 8.54204C8.9242 8.50041 9.05996 8.09289 9.10787 7.90985C9.15569 7.72711 9.36966 6.91542 9.49081 6.87551C9.50775 6.96698 9.39663 7.26186 9.36109 7.60677C9.32564 7.95169 9.40832 8.41502 9.79749 8.49514C10.1867 8.57537 10.4507 8.29143 10.5464 8.09431C10.6422 7.89688 10.6869 7.68994 10.6978 7.5857C10.7102 7.85029 10.8707 8.26348 11.1825 8.38128L11.2146 8.39172C11.2338 8.60829 11.265 8.89101 11.2938 9.18791C11.2331 9.20898 11.1718 9.22802 11.1109 9.24443C11.1031 9.21597 11.0945 9.18811 11.0841 9.16248C10.9889 8.93224 10.8315 8.72002 10.6132 8.73471C10.3903 8.7496 10.1472 9.08428 10.1578 9.32871C10.1648 9.49312 10.2453 9.62804 10.5378 9.66258C10.6715 9.67849 10.8134 9.66177 10.9599 9.62581C10.9806 9.69378 10.9936 9.76135 10.9951 9.82294C10.9024 9.9449 10.1352 10.5958 9.56083 10.6584C8.98643 10.7209 8.81123 10.3822 8.80548 10.0421C8.80119 9.78343 8.93949 9.52523 9.03668 9.34654C9.17575 9.23207 9.28989 9.08894 9.36196 8.97853C9.38154 8.9921 9.40014 9.00466 9.41786 9.01631C9.48652 9.06119 9.51389 9.12825 9.51389 9.12825C9.52655 9.10637 9.58557 8.98684 9.56249 8.92839C9.55187 8.914 9.49996 8.87804 9.43754 8.8354C9.50308 8.65165 9.5022 8.4682 9.41728 8.42738C9.32233 8.38189 9.19835 8.50831 9.14488 8.5854C9.11713 8.62551 9.10651 8.67099 9.10632 8.70918C9.10593 8.75831 9.12648 8.80268 9.17731 8.84218C9.22795 8.88108 9.27499 8.91633 9.31921 8.94814C9.19367 9.09644 8.89703 9.31372 8.71549 9.44135C8.70877 9.42261 8.68219 9.44237 8.64644 9.48977L8.59726 9.52391C8.45244 9.62359 8.10515 9.84249 8.03688 9.89607C7.96852 9.94976 8.01137 9.94004 8.03688 9.92808C8.08509 9.89881 8.14839 9.86335 8.21949 9.82425C8.32019 9.76884 8.43735 9.70614 8.55188 9.64324C8.51799 9.70786 8.48293 9.78343 8.45186 9.86589C8.31522 10.2288 8.09434 10.9811 8.57214 11.4337C9.02928 11.8669 9.81502 11.7021 10.4666 11.2518C11.1184 10.8015 11.2591 10.6431 11.361 10.4794ZM9.23633 8.69014C9.21374 8.6714 9.21062 8.64638 9.22903 8.62895C9.2525 8.60647 9.28249 8.58519 9.31658 8.578C9.38884 8.56291 9.41767 8.6563 9.38865 8.80177C9.33372 8.76398 9.27723 8.72427 9.23633 8.69014ZM10.7311 9.30369C10.3993 9.30541 10.384 9.23765 10.3902 9.19429C10.3963 9.15114 10.4997 9.03272 10.6308 9.11082C10.6862 9.14395 10.7486 9.21323 10.8063 9.30025C10.7808 9.30237 10.7557 9.30349 10.7311 9.30369ZM9.7148 11.2667C9.08791 11.4592 8.4764 11.161 8.43939 10.5705C8.41105 10.1196 8.55723 9.77989 8.65151 9.58844C8.7414 9.53839 8.82632 9.48977 8.89654 9.44621C8.73244 9.74352 8.63641 10.1417 8.70059 10.479C8.77324 10.8611 9.06872 11.0928 9.56901 11.018C10.0643 10.9442 10.7341 10.4142 10.924 10.2143C10.9818 10.1422 11.02 10.0772 11.072 9.9447C11.0934 9.8903 11.1235 9.81848 11.1347 9.73734C11.142 9.68446 11.1459 9.62794 11.1468 9.5704C11.205 9.55085 11.2634 9.52897 11.3222 9.50547C11.3422 9.74737 11.3569 9.98582 11.3578 10.1921C11.0491 10.5993 10.3417 11.0742 9.7148 11.2667Z" fill="white"/>
<path d="M20.6784 9.71802C20.6571 9.32296 20.6059 8.60791 20.5773 8.24517C20.552 7.92233 20.5022 7.47987 20.4658 7.09039C20.4566 6.99233 20.4556 6.89843 20.4566 6.84383C20.4577 6.80068 20.4961 6.81729 20.5344 6.86166C20.5728 6.90603 20.6328 6.96174 20.6441 6.95495C20.6816 6.93307 20.6367 6.82489 20.584 6.7085C20.5313 6.59191 20.3224 6.10963 20.2861 6.0913C20.2676 6.08198 20.1697 6.37088 20.1641 6.4275C20.1828 6.46235 20.2306 6.51634 20.2357 6.67396C20.241 6.83168 20.3118 7.55676 20.3629 8.14316C20.3984 8.55078 20.4442 9.21589 20.4775 9.71741C20.4758 9.71822 20.5089 10.1942 20.5125 10.2477C20.533 10.5556 20.5224 10.9431 20.5203 11.0104C20.5181 11.0779 20.562 11.0662 20.6091 10.9163C20.6571 10.7632 20.6845 10.4214 20.6882 10.1129L20.6784 9.71802Z" fill="white"/>
<path d="M18.8996 8.33509C18.8353 8.35718 18.7344 8.2807 18.7421 8.12034C18.7491 7.97549 18.8042 7.83985 18.8255 7.75426C18.8547 7.63615 18.8549 7.52229 18.8301 7.58682C18.7744 7.73106 18.6707 8.00993 18.6493 8.19915C18.6278 8.38838 18.6823 8.51034 18.7564 8.55197C18.8487 8.60414 18.9152 8.52138 18.9602 8.39942C19.0035 8.28262 18.9953 8.14628 18.9653 8.17839C18.9402 8.21192 18.9308 8.32425 18.8996 8.33509Z" fill="white"/>
<path d="M17.9753 8.91801C18.0094 8.8161 18.0174 8.71622 17.9912 8.77102C17.9321 8.8938 17.8214 9.13103 17.7889 9.29584C17.7566 9.46065 17.7958 9.57218 17.8582 9.61442C17.9359 9.6673 17.9999 9.59953 18.0483 9.4957C18.0945 9.39633 18.0969 9.27568 18.0684 9.30182C18.0439 9.32937 18.0276 9.42732 17.9996 9.43452C17.9412 9.449 17.8581 9.37404 17.8761 9.23344C17.8925 9.10682 17.9506 8.99165 17.9753 8.91801Z" fill="white"/>
<path d="M15.2871 11.068C15.3441 10.964 15.3725 10.8561 15.3329 10.9106C15.2447 11.0323 15.0777 11.2687 15.0103 11.442C14.9431 11.6153 14.9645 11.7455 15.0244 11.8047C15.0991 11.8787 15.1824 11.8179 15.2551 11.7147C15.3249 11.6157 15.351 11.4844 15.3145 11.5068C15.2825 11.532 15.2458 11.6357 15.2136 11.6376C15.1473 11.6412 15.0707 11.5419 15.1177 11.3921C15.1601 11.257 15.2459 11.1434 15.2871 11.068Z" fill="white"/>
<path d="M20.0025 8.03187C19.9372 8.05031 19.8406 7.96796 19.8568 7.80821C19.8715 7.66407 19.9339 7.53188 19.9595 7.4478C19.9951 7.33141 20.0013 7.21786 19.9731 7.28066C19.91 7.42166 19.7916 7.69395 19.7599 7.88175C19.7283 8.06946 19.7761 8.19435 19.848 8.24024C19.9376 8.29737 20.0081 8.21877 20.0597 8.09944C20.1091 7.98538 20.1083 7.84883 20.0765 7.87922C20.0497 7.91143 20.0344 8.02296 20.0025 8.03187Z" fill="white"/>
<path d="M19.9808 9.99171C20.0702 10.0488 20.1411 9.97023 20.1925 9.8509C20.2418 9.73684 20.2411 9.6003 20.2095 9.63069C20.1825 9.6627 20.1672 9.77443 20.1354 9.78334C20.07 9.80167 19.9732 9.71942 19.9896 9.55968C20.0043 9.41553 20.0666 9.28324 20.0923 9.19926C20.1279 9.08287 20.134 8.96912 20.1059 9.03212C20.0426 9.17313 19.9244 9.44541 19.8928 9.63302C19.8611 9.82092 19.9089 9.94582 19.9808 9.99171Z" fill="white"/>
<path d="M21.1248 7.48813C21.1678 7.34733 21.1752 7.20987 21.1411 7.28594C21.0646 7.45652 20.9214 7.78594 20.8831 8.01335C20.8449 8.24056 20.9028 8.39159 20.9898 8.4472C21.098 8.51629 21.1836 8.42117 21.246 8.27693C21.3055 8.13886 21.3047 7.97344 21.2663 8.01041C21.2339 8.04921 21.2152 8.18414 21.1767 8.19498C21.0978 8.21726 20.9806 8.11769 21.0004 7.92441C21.0182 7.74998 21.0937 7.59003 21.1248 7.48813Z" fill="white"/>
<path d="M11.9931 9.92379C12.0636 9.7522 12.0891 9.5804 12.0373 9.67187C11.9213 9.87659 11.7028 10.273 11.6282 10.5538C11.5535 10.8346 11.6088 11.032 11.7116 11.1129C11.8398 11.2134 11.9585 11.1044 12.0536 10.9311C12.1447 10.7649 12.1628 10.5567 12.1103 10.5983C12.065 10.6429 12.0259 10.8104 11.9762 10.8193C11.8741 10.8373 11.7386 10.6973 11.7859 10.4567C11.8288 10.2396 11.9423 10.048 11.9931 9.92379Z" fill="white"/>
<path d="M21.8527 11.625C21.9067 11.5753 22.3759 11.2909 22.4623 11.2332C22.4623 11.2332 22.5506 11.0711 22.5241 11.0539C22.4975 11.0367 22.3262 11.2119 22.2197 11.2168C22.113 11.2216 21.9671 11.1335 21.9624 11.0613C21.9762 11.0068 22.1045 10.9249 22.1508 10.9216C22.1972 10.9186 22.1897 11.0373 22.2052 11.0518C22.2207 11.066 22.2823 10.9698 22.2901 10.9297C22.2977 10.8897 22.2914 10.7221 22.2065 10.7462C22.0722 10.7843 21.8697 11.0645 21.8466 11.1527C21.8233 11.241 21.9485 11.3179 22.0398 11.3597C22.032 11.3629 21.9638 11.3998 21.9207 11.4478C21.9207 11.4478 21.8743 11.5063 21.8527 11.625Z" fill="white"/>
<path d="M20.2551 11.9771C20.309 11.9273 20.7782 11.6432 20.8646 11.5852C20.8646 11.5852 20.9531 11.4232 20.9265 11.4059C20.8999 11.3887 20.7286 11.564 20.622 11.5688C20.5154 11.5737 20.3694 11.4856 20.3647 11.4133C20.3786 11.3588 20.5068 11.277 20.5532 11.2739C20.5995 11.2706 20.592 11.3892 20.6075 11.4036C20.623 11.4181 20.6846 11.3219 20.6924 11.2818C20.7 11.2417 20.6935 11.0742 20.6089 11.0982C20.4746 11.1366 20.272 11.4166 20.2489 11.5049C20.2257 11.593 20.3508 11.6699 20.442 11.7118C20.4344 11.715 20.3662 11.7518 20.323 11.7999C20.323 11.7999 20.2767 11.8583 20.2551 11.9771Z" fill="white"/>
<path d="M16.6475 6.88095C16.6896 6.93595 16.9652 7.3299 17.1811 7.57757C17.3969 7.82544 17.7669 8.22657 18.0387 8.50149C18.0913 8.55477 18.1471 8.61251 18.2039 8.67258C18.2724 9.26476 18.3517 10.0183 18.385 10.3299C18.4178 10.6367 18.4227 11.0242 18.4234 11.0916C18.424 11.1592 18.4672 11.1454 18.5083 10.9938C18.5634 10.7903 18.5698 10.2633 18.5406 9.91529C18.5224 9.70034 18.4797 9.29768 18.4383 8.92643C18.5988 9.10481 18.7504 9.28178 18.8526 9.41427C19.0404 9.65749 19.1985 9.84094 19.2948 10.1024C19.363 10.2873 19.3561 10.4345 19.384 10.4636C19.4082 10.4887 19.4349 10.2674 19.4051 10.0527C19.3568 9.70419 19.2905 9.55639 18.8928 9.05872C18.7411 8.86849 18.5625 8.66964 18.3878 8.48376C18.3811 8.42643 18.375 8.37335 18.3694 8.32625C18.3556 8.20986 18.2208 7.20358 18.2102 7.09084C18.2011 6.99268 18.1853 6.8771 18.1865 6.8225C18.1875 6.77905 18.2121 6.79596 18.2506 6.84033C18.289 6.8846 18.3562 6.96209 18.3676 6.9553C18.4052 6.93342 18.3633 6.80346 18.3106 6.68687C18.2581 6.57048 18.0773 6.10998 18.0409 6.09175C18.0225 6.08243 17.9141 6.37123 17.9086 6.42775C17.9274 6.4626 17.9751 6.51689 17.9803 6.67431C17.9817 6.71827 18.0164 7.13217 18.0599 7.52297C18.0985 7.86829 18.1462 8.19578 18.1512 8.23366L18.1514 8.2366C17.9713 8.05184 17.8127 7.89493 17.7164 7.79637C17.4915 7.56632 16.9946 7.02044 16.9746 6.93869C16.9701 6.91286 17.0087 6.92876 17.0796 6.94153C17.1508 6.95439 17.2141 6.98164 17.2027 6.94234C17.1976 6.9238 17.1703 6.87801 17.1024 6.83081C17.0344 6.7835 16.8603 6.66093 16.7308 6.57422C16.6009 6.48762 16.5367 6.41499 16.5099 6.43575C16.4966 6.44598 16.5084 6.74268 16.5162 6.77965C16.5486 6.78279 16.6056 6.82574 16.6475 6.88095Z" fill="white"/>
<path d="M17.0033 6.3473C17.0566 6.33413 17.309 6.34132 17.4007 6.363C17.3623 6.39298 17.104 6.53976 17.053 6.57471C17.0022 6.60976 16.9894 6.63002 17.0149 6.62657C17.0889 6.60348 17.2557 6.57471 17.3357 6.52781C17.4111 6.4881 17.5395 6.29442 17.5895 6.2222C17.6392 6.14997 17.6392 6.11391 17.6265 6.09457C17.5755 6.06337 17.2465 6.03207 17.0878 6.07633C17.0439 6.10986 16.958 6.28845 16.9454 6.32562C16.9327 6.363 16.95 6.36047 17.0033 6.3473Z" fill="white"/>
<path d="M18.4092 6.32392C18.4523 6.31328 18.6557 6.31906 18.7294 6.33648C18.6986 6.36069 18.4905 6.479 18.4494 6.50737C18.4082 6.53543 18.398 6.55184 18.4186 6.549C18.4783 6.53056 18.6128 6.50737 18.6771 6.46938C18.7378 6.43737 18.8413 6.28127 18.8815 6.22323C18.9216 6.16488 18.9216 6.13591 18.9113 6.12041C18.8704 6.09499 18.6053 6.06987 18.4774 6.10563C18.4419 6.13257 18.3729 6.27651 18.3627 6.3065C18.3522 6.33648 18.3664 6.33456 18.4092 6.32392Z" fill="white"/>
<path d="M19.5499 6.30732C19.5928 6.29668 19.7962 6.30246 19.87 6.31988C19.8393 6.34409 19.6312 6.4624 19.59 6.49056C19.549 6.51882 19.5387 6.53523 19.5593 6.5324C19.619 6.51396 19.7639 6.49056 19.8283 6.45278C19.8891 6.42077 19.961 6.26467 20.0013 6.20643C20.0415 6.14828 20.0415 6.11911 20.0311 6.10381C19.9901 6.07839 19.7458 6.05327 19.6181 6.08882C19.5827 6.11597 19.5134 6.25991 19.5032 6.28989C19.493 6.31988 19.5069 6.31795 19.5499 6.30732Z" fill="white"/>
<path d="M18.8377 6.93309C18.7702 7.05282 18.8549 7.14946 18.8858 7.2462C18.8441 7.28904 18.78 7.24994 18.7586 7.21236C18.713 7.13528 18.7283 6.97817 18.6746 6.95396C18.6609 6.9964 18.6519 7.0435 18.6519 7.0435C18.6519 7.0435 18.6927 7.15098 18.6825 7.22209C18.676 7.26504 18.6423 7.31518 18.5978 7.31619C18.4792 7.31943 18.5376 7.1219 18.4918 7.00997C18.4825 7.03732 18.4758 7.0667 18.4648 7.09233C18.4732 7.1215 18.4778 7.16242 18.4792 7.18603C18.4819 7.23293 18.4786 7.28347 18.4857 7.32348C18.4955 7.38011 18.5235 7.41769 18.5661 7.42134C18.6548 7.42924 18.6952 7.34851 18.7085 7.28226C18.7238 7.34982 18.841 7.42427 18.8986 7.34131C18.975 7.23191 18.9139 7.13821 18.8748 7.0353C18.8465 6.95922 18.8547 6.90928 18.8377 6.93309Z" fill="white"/>
<path d="M15.5084 6.61551C15.5145 6.66474 15.537 6.69837 15.5737 6.70344C15.6495 6.71428 15.6879 6.64651 15.7022 6.59019C15.7122 6.64904 15.8102 6.71833 15.8635 6.64965C15.9339 6.55879 15.8851 6.47532 15.8557 6.38486C15.8346 6.3178 15.8437 6.27526 15.8281 6.29501C15.7648 6.39489 15.8339 6.48231 15.8563 6.56709C15.8186 6.60194 15.7651 6.56537 15.7481 6.53225C15.7121 6.46367 15.7318 6.32905 15.6868 6.30565C15.6732 6.34171 15.6635 6.38172 15.6635 6.38172C15.6635 6.38172 15.694 6.47623 15.6821 6.53691C15.6748 6.57368 15.6437 6.61531 15.6052 6.6142C15.503 6.61166 15.5616 6.44412 15.5268 6.34576C15.5177 6.36875 15.5106 6.39398 15.5 6.41525C15.5061 6.44098 15.5084 6.47623 15.5084 6.49679C15.5092 6.53731 15.5041 6.58046 15.5084 6.61551Z" fill="white"/>
<path d="M17.9272 11.2544C17.9386 11.2341 17.9637 11.1782 17.9574 11.14C17.9511 11.1018 17.9095 10.9424 17.8287 10.9025C17.7485 10.8626 17.6877 10.9463 17.6492 11.0627L17.6226 11.062C17.6162 11.0792 17.6082 11.1049 17.6019 11.1514C17.593 11.2186 17.576 11.2618 17.4737 11.3664C17.3876 11.4539 17.1086 11.6641 16.9279 11.7628C16.7469 11.8618 16.6167 11.9472 16.5687 11.9731C16.5209 11.9987 16.5348 12.0082 16.5826 11.9921C16.6304 11.9761 16.8705 11.8891 16.9663 11.8447C17.0618 11.8 17.1787 11.7266 17.3195 11.6238C17.4761 11.5095 17.5697 11.3952 17.6011 11.2939C17.6235 11.2217 17.6293 11.1929 17.6293 11.1929C17.6293 11.1929 17.6881 11.232 17.7879 11.2576C17.8874 11.2833 17.9156 11.275 17.9272 11.2544ZM17.7922 11.028C17.8365 11.047 17.8635 11.1013 17.8715 11.1342C17.8207 11.1355 17.7271 11.1064 17.6872 11.0862C17.7112 11.034 17.7529 11.0114 17.7922 11.028Z" fill="white"/>
<path d="M16.8656 11.3666C16.7267 11.3449 16.3768 11.2851 16.2912 11.0565C16.3631 10.9386 16.6941 10.7893 17.1088 10.6496C17.5235 10.5102 17.9567 10.3293 18.0732 10.242C18.0987 10.2323 18.1481 10.2352 18.1481 10.2352C18.169 10.1677 18.2731 9.93042 18.2796 9.88079C18.1637 9.88818 17.4494 9.94724 17.1321 9.96638C16.8146 9.98563 16.2032 9.98097 15.9994 9.97844C16.1244 9.87734 16.4209 9.68002 16.8448 9.51166C16.8997 9.48978 16.9505 9.47003 16.998 9.4522C17.0332 9.52291 17.0594 9.5928 17.0649 9.65368C17.0918 9.62248 17.1121 9.51906 17.1053 9.4129C17.3524 9.32416 17.4796 9.29479 17.5346 9.27807C17.5692 9.22753 17.6307 9.02311 17.6398 8.87451C17.6029 8.79884 17.4873 8.70463 17.3845 8.6237C17.2428 8.51237 17.09 8.41533 16.9375 8.45777C16.729 8.51531 16.6872 8.94623 16.7358 9.0376C16.7513 9.06646 16.788 9.11762 16.8313 9.18073C16.679 9.24809 16.5197 9.3273 16.3792 9.41057C16.0664 9.59594 15.7172 9.79874 15.6153 9.99373L15.5861 10.0097C15.5779 10.0282 15.5134 10.3299 15.5041 10.3625C15.5692 10.3599 16.0549 10.3609 16.3933 10.3491C16.7314 10.3369 17.0271 10.3249 17.1429 10.3249C16.9714 10.3706 16.5219 10.5585 16.3927 10.669C16.2634 10.7798 16.1822 10.9482 16.1801 11.237C16.0596 11.184 15.8357 11.0627 15.6449 10.7724C15.4322 10.4489 15.4762 10.1161 15.3911 9.67941C15.2674 9.0457 15.0033 8.51065 14.8388 8.34696C14.7834 8.57062 14.7763 8.73918 14.7763 8.73918C14.7763 8.73918 14.9824 9.25174 15.0867 9.57892C15.191 9.90621 15.2801 10.2286 15.2757 10.3009C15.1898 10.5128 14.6814 10.9567 14.2576 11.2165C13.8558 11.4628 13.5018 11.4894 13.3763 11.3139C13.3517 11.2797 13.3349 11.2392 13.3255 11.1933C13.38 11.1646 13.4348 11.1357 13.4909 11.1069C13.8522 10.9217 14.4939 10.5319 14.6442 10.3274C14.8065 10.0795 14.8043 9.73056 14.7091 9.53081C14.6143 9.33115 14.4657 9.09999 14.4541 9.01825C14.4451 8.97965 14.5507 9.03395 14.613 9.0376C14.6432 9.03506 14.6281 8.98938 14.5633 8.91715C14.5115 8.85962 14.3112 8.67293 14.2346 8.6001C14.2154 8.58156 14.2011 8.58905 14.1972 8.6086C14.1823 8.68316 14.1518 8.8428 14.1401 8.92161L14.1482 8.96132C14.1703 8.97601 14.1956 8.99252 14.2078 9.03375C14.2252 9.09219 14.2859 9.25528 14.3853 9.46112C14.4849 9.66685 14.6289 9.89396 14.643 10.0086C14.5259 10.1766 13.9356 10.5343 13.3607 10.829C13.3962 10.705 13.4523 10.5648 13.5267 10.4091C13.5478 10.3828 13.5671 10.3503 13.585 10.3136C13.6424 10.1957 13.648 10.0516 13.6132 10.0821C13.5834 10.1144 13.562 10.2314 13.5279 10.2393C13.458 10.2554 13.3601 10.1637 13.3847 9.99606C13.407 9.84483 13.4789 9.70828 13.51 9.62086C13.553 9.49991 13.5648 9.38038 13.5322 9.44541C13.4588 9.59067 13.3212 9.87208 13.2789 10.0687C13.2369 10.265 13.2816 10.3992 13.3553 10.4512C13.3829 10.4709 13.4093 10.4771 13.4344 10.4733C13.3839 10.5813 13.3216 10.7137 13.2761 10.8718C13.0449 10.9882 12.8199 11.0922 12.6337 11.1672C11.9644 11.4367 11.4874 11.5955 11.1537 11.7134L11.1407 11.72C11.1652 11.6308 11.1619 11.5546 11.1356 11.5775C11.1058 11.61 11.0845 11.727 11.0504 11.7347C10.9806 11.7508 10.8826 11.6592 10.9071 11.4915C10.9295 11.3403 11.0014 11.2039 11.0325 11.1164C11.0753 10.9956 11.0872 10.8758 11.0547 10.941C10.9812 11.0862 10.8437 11.3676 10.8015 11.5641C10.7593 11.7605 10.804 11.8948 10.8776 11.9468C10.9694 12.0117 11.0476 11.9321 11.1076 11.8092L11.1286 11.7586C11.1494 11.7586 11.1846 11.7532 11.2371 11.74C11.39 11.7013 11.7722 11.6389 12.2978 11.5618C12.687 11.5049 12.9557 11.3846 13.2154 11.2508C13.2143 11.2831 13.214 11.3161 13.2153 11.35C13.2294 11.7512 13.4631 11.8645 13.7827 11.7894C14.0911 11.7166 14.521 11.3985 14.7787 11.184C15.0474 10.9603 15.2025 10.7604 15.242 10.6908C15.3137 10.5199 15.3334 10.331 15.3382 10.242C15.3617 10.4874 15.3807 10.8269 15.587 11.1181C15.7769 11.3862 16.1661 11.7601 16.898 11.7704C16.9005 11.6724 16.8656 11.3666 16.8656 11.3666ZM16.8172 8.88038C16.922 8.74809 17.1456 8.8346 17.3134 9.00234C17.2274 9.02503 17.1106 9.06545 16.9818 9.11721C16.9052 9.01339 16.8198 8.9133 16.8172 8.88038Z" fill="white"/>
<path d="M12.7028 7.06675C12.7504 7.04234 12.8958 6.9688 13.0525 6.86608C13.2089 6.76408 13.3558 6.6405 13.4277 6.55834C13.4553 6.52684 13.4798 6.50223 13.4955 6.47295C13.5424 6.49483 13.5748 6.51752 13.5949 6.52644C13.6252 6.5396 13.6656 6.55855 13.6919 6.4615C13.7181 6.36456 13.6833 6.30196 13.6321 6.22721C13.5888 6.1645 13.52 6.0703 13.4642 6.0469C13.4169 6.02694 13.3944 6.14586 13.4016 6.14293H13.4332L13.4394 6.14627C13.3742 6.18324 13.3238 6.29832 13.3187 6.33873C13.3136 6.3827 13.321 6.41511 13.4145 6.44216L13.452 6.45462C13.374 6.55855 13.2286 6.66602 13.1296 6.7422C12.9891 6.85058 12.7896 6.98602 12.7328 7.02512C12.676 7.06402 12.6808 7.07627 12.7028 7.06675ZM13.5474 6.30318L13.5525 6.25121C13.6182 6.33549 13.667 6.43578 13.6621 6.44996C13.6319 6.45269 13.5943 6.42129 13.5286 6.38969C13.5359 6.36456 13.542 6.33681 13.5474 6.30318ZM13.3586 6.30328C13.3583 6.28748 13.3836 6.24351 13.4371 6.21951C13.4906 6.1953 13.5143 6.26286 13.519 6.34511L13.5031 6.37804L13.4549 6.3593C13.4038 6.34248 13.3694 6.33296 13.3586 6.30328Z" fill="white"/>
<path d="M16.2075 8.65297C16.2846 8.59564 16.4967 8.42343 16.6169 8.31059C16.7006 8.23219 16.7989 8.11671 16.8656 8.01906C16.9074 8.04955 16.9465 8.07659 16.982 8.10009C17.0506 8.14517 17.0782 8.21203 17.0782 8.21203C17.0908 8.19015 17.1499 8.07041 17.1268 8.01217C17.1129 7.99313 17.0286 7.93772 16.9424 7.87836C16.9861 7.76794 17.0463 7.577 16.9601 7.51014C16.8864 7.45342 16.762 7.54732 16.7045 7.66918C16.657 7.77007 16.6508 7.85567 16.7415 7.92576C16.767 7.94552 16.7915 7.96415 16.8154 7.98188C16.724 8.09442 16.5555 8.26095 16.4356 8.3743C16.2867 8.5145 16.1459 8.65196 16.1213 8.68478L16.1142 8.69754C16.0817 8.59564 16.0905 8.53273 16.0664 8.56657C15.9621 8.75062 16.0928 8.89973 16.1403 9.04864C16.076 9.11428 15.9776 9.054 15.9446 8.99657C15.8742 8.87765 15.8977 8.63616 15.8154 8.59878C15.7942 8.66401 15.7804 8.73664 15.7804 8.73664C15.7804 8.73664 15.843 8.90206 15.8271 9.01126C15.8173 9.0773 15.7653 9.15459 15.697 9.15591C15.5143 9.16118 15.6044 8.85708 15.5339 8.68488C15.5196 8.72712 15.5093 8.7723 15.4922 8.8114C15.5051 8.85668 15.5122 8.91948 15.5141 8.95585C15.5188 9.02807 15.5135 9.10556 15.5243 9.16756C15.5394 9.25467 15.5825 9.31261 15.6482 9.31798C15.7845 9.33044 15.8467 9.20585 15.8673 9.10425C15.8908 9.20818 16.0713 9.32244 16.16 9.19501C16.2775 9.02655 16.1835 8.88231 16.1234 8.72388L16.1163 8.70332C16.1246 8.70666 16.1561 8.69116 16.2075 8.65297ZM16.7404 7.70443C16.7856 7.61012 16.8808 7.60212 16.9093 7.65155C16.932 7.69086 16.9338 7.76754 16.8998 7.84847C16.8158 7.78922 16.7409 7.73117 16.7404 7.70443Z" fill="white"/>
<path d="M13.2337 8.0532C13.0732 8.04044 12.9868 7.87502 12.9374 7.63606C12.8879 7.3971 12.9182 7.08197 12.9316 7.00124C12.9451 6.9206 12.8694 6.96224 12.84 7.15804C12.8108 7.35365 12.7814 7.66645 12.8849 7.99394C12.9882 8.32103 13.1644 8.44309 13.3188 8.40125C13.4731 8.35962 13.609 7.95211 13.6569 7.76927C13.7047 7.58632 13.9187 6.84028 14.0398 6.80016C14.0568 6.89163 13.9457 7.12107 13.9101 7.46598C13.8748 7.8109 13.9363 8.26329 14.3255 8.34352C14.7146 8.42384 14.9787 8.13981 15.0744 7.94238C15.1702 7.74526 15.2149 7.53801 15.2257 7.43387C15.2382 7.69856 15.3987 8.11185 15.7105 8.22966C16.0117 8.34352 16.2418 8.23928 16.3435 8.09169C16.4338 7.96061 16.5073 7.69066 16.5136 7.48361C16.5198 7.27676 16.3608 6.89822 16.3253 6.77767C16.2896 6.65743 16.2712 6.57397 16.2681 6.53233C16.2651 6.4907 16.3486 6.58055 16.401 6.59818C16.4366 6.60618 16.4241 6.51957 16.3809 6.46011C16.3377 6.40085 16.1042 6.00245 16.0878 6.03021C16.0778 6.04682 15.9843 6.33987 15.9782 6.38474C16.0152 6.41209 16.058 6.48746 16.0613 6.55968C16.0642 6.63191 16.126 6.94947 16.1832 7.12593C16.2404 7.30239 16.3515 7.64092 16.3593 7.73401C16.2481 7.82214 15.9979 7.93428 15.7601 7.82062C15.5224 7.70656 15.4465 7.54135 15.4203 7.24617C15.4036 7.05756 15.4019 6.71011 15.3421 6.41959C15.3084 6.25539 15.2374 6.08845 15.1531 5.99982C15.1332 6.05421 15.0436 6.38961 15.0436 6.38961C15.0728 6.48584 15.1637 6.80989 15.1608 7.09068C15.1576 7.37127 15.1379 7.64589 14.8582 7.83511C14.5787 8.02433 14.1805 7.94897 14.0769 7.65369C13.9734 7.35851 14.2036 6.69441 14.2005 6.51957C14.1974 6.34473 14.1695 6.32052 14.1047 6.34949C14.0398 6.37836 13.9069 6.54692 13.7928 6.82113C13.6784 7.09554 13.6277 7.36975 13.5626 7.60081C13.4979 7.83187 13.3941 8.06596 13.2337 8.0532Z" fill="white"/>
<path d="M8.57089 7.02983C8.7684 7.01372 8.93532 6.84527 8.97847 6.80049C9.02171 6.75542 9.04498 6.68826 9.01401 6.71378C8.78554 6.94322 8.47983 6.9497 8.46269 6.91111C8.47049 6.87262 8.55093 6.81001 8.66828 6.72189C8.73957 6.6683 8.80307 6.61806 8.8506 6.54685L8.86355 6.54938C8.95052 6.57085 9.05093 6.6136 9.0816 6.57936C9.13156 6.52395 9.13819 6.43319 9.08404 6.33534C9.03826 6.25228 8.93153 6.17499 8.83881 6.11917C8.74629 6.06366 8.72837 6.1523 8.71649 6.1839C8.7051 6.21338 8.70977 6.2385 8.72935 6.23911C8.69954 6.28479 8.67831 6.34364 8.67052 6.39227C8.66546 6.42367 8.66955 6.4494 8.68094 6.47057C8.68425 6.47655 8.7014 6.50015 8.73383 6.51413L8.77405 6.52821C8.7048 6.60013 8.62504 6.65645 8.58316 6.68491C8.50759 6.73627 8.41799 6.82612 8.39024 6.91901C8.36238 7.0122 8.37319 7.04593 8.57089 7.02983ZM8.92003 6.37444L8.92763 6.32703V6.29664C8.99025 6.3479 9.09037 6.44494 9.08423 6.50309C9.0446 6.49296 8.96902 6.47503 8.89725 6.45426C8.9064 6.43005 8.9139 6.40351 8.92003 6.37444ZM8.73441 6.38923C8.68835 6.3479 8.73324 6.30667 8.77405 6.28013C8.82674 6.24589 8.85761 6.27416 8.88458 6.36401C8.87514 6.38973 8.86189 6.41475 8.84631 6.43876C8.80531 6.42448 8.74756 6.40159 8.73441 6.38923Z" fill="white"/>
<path d="M9.16394 9.53919C9.10716 9.59459 9.08515 9.7749 9.09674 9.78574C9.10823 9.79658 9.28568 9.86394 9.31343 9.87853L9.32609 9.82423C9.41063 9.90963 9.50432 10.3357 9.52516 10.3369C9.546 10.338 9.57619 10.2887 9.59596 10.1755C9.61417 10.0706 9.63238 9.91358 9.65137 9.78574C9.6691 9.66874 9.69666 9.60179 9.75918 9.58842C9.82181 9.57525 9.86816 9.6655 9.88433 9.72689C9.88433 9.72689 9.92825 9.60888 9.9376 9.53554C9.92718 9.49695 9.82979 9.35148 9.74993 9.3996C9.66998 9.44782 9.61992 9.65193 9.60375 9.77956C9.58749 9.90699 9.57502 10.065 9.55535 10.0903C9.5347 9.98155 9.46857 9.78686 9.38872 9.67746C9.29892 9.55489 9.19394 9.50991 9.16394 9.53919Z" fill="white"/>
<path d="M8.40941 9.32136C8.48352 9.29847 8.65035 9.2697 8.73021 9.2228C8.80549 9.18309 8.93395 8.98941 8.98381 8.91719C9.03357 8.84496 9.03367 8.8087 9.02101 8.78955C8.97008 8.75815 8.641 8.72705 8.48225 8.77132C8.43843 8.80465 8.35263 8.98323 8.33997 9.02061C8.32711 9.05779 8.34464 9.05546 8.39782 9.04229C8.45109 9.02892 8.70362 9.03611 8.79497 9.05779C8.75689 9.08797 8.49862 9.23475 8.44758 9.2697C8.39675 9.30454 8.38389 9.32501 8.40941 9.32136Z" fill="white"/>
<path d="M23.7067 10.3553C23.6991 10.1388 23.6049 9.80647 23.2465 9.29654C23.1228 9.12049 22.9488 8.89136 22.7652 8.65665C22.7601 8.57663 22.7551 8.50349 22.7505 8.44069C22.7264 8.11766 22.6449 7.45862 22.6099 7.06903C22.6013 6.97078 22.6006 6.86624 22.6019 6.81164C22.6031 6.76828 22.6309 6.77406 22.6691 6.81863C22.7072 6.8631 22.7661 6.92803 22.7783 6.92357C22.8044 6.91344 22.7817 6.81508 22.7296 6.69849C22.6776 6.5817 22.481 6.10935 22.4449 6.09102C22.4263 6.0817 22.3336 6.35905 22.3278 6.41577C22.3462 6.45062 22.3937 6.50481 22.3983 6.66253C22.4032 6.82015 22.4877 7.75106 22.5363 8.33767L22.539 8.37039C22.2645 8.02568 22.006 7.71136 21.8997 7.58392C21.8813 7.56184 21.861 7.53672 21.8392 7.50978C21.8219 7.35287 21.8059 7.20335 21.7949 7.07987C21.7859 6.98182 21.7854 6.87708 21.7869 6.82248C21.7878 6.77922 21.8157 6.7851 21.8539 6.82967C21.8923 6.87414 21.9509 6.93907 21.9632 6.93441C21.9893 6.92448 21.9666 6.82613 21.9144 6.70933C21.8625 6.59254 21.6575 6.10935 21.6212 6.09102C21.6027 6.0817 21.5057 6.38113 21.5 6.43745C21.5186 6.4725 21.566 6.52669 21.5707 6.68441C21.5726 6.75137 21.588 6.95437 21.6087 7.21055C21.4268 6.96733 21.2486 6.71267 21.236 6.66091C21.2315 6.63538 21.27 6.65108 21.3412 6.66405C21.4121 6.67681 21.4786 6.70082 21.4672 6.66132C21.4618 6.64298 21.4348 6.59719 21.3669 6.54979C21.2989 6.50248 21.1248 6.37991 20.9952 6.29341C20.8654 6.2068 20.8011 6.13397 20.7744 6.15473C20.7611 6.16496 20.7729 6.46186 20.7805 6.49863C20.8131 6.50198 20.8734 6.52922 20.9118 6.58696C20.9505 6.6447 21.1987 7.03611 21.3949 7.3008C21.4514 7.37698 21.5398 7.49509 21.6434 7.63143C21.6636 7.87525 21.6848 8.12718 21.7024 8.33767C21.7422 8.81782 21.8854 10.0841 21.8867 10.4957C21.7811 10.6072 21.565 10.7628 21.3426 10.7661C21.1203 10.7692 20.9983 10.7034 20.9088 10.5174C20.8811 10.4597 20.8554 10.4018 20.8299 10.3493C20.7693 10.2246 20.6341 10.1546 20.5038 10.189L20.4839 10.1949L20.4485 10.2141C20.3603 10.2661 20.269 10.3532 20.1798 10.4883C20.0255 10.7227 19.927 10.977 19.8128 11.1972C19.6939 11.4265 19.6027 11.5804 19.3941 11.5436C19.2472 11.5177 19.1357 11.376 19.0669 11.2016C19.26 11.0513 19.4003 10.8552 19.5028 10.5834C19.6364 10.2302 19.684 9.832 19.6721 9.38427C19.6607 8.96287 19.49 7.97148 19.4449 7.59152C19.3999 7.21136 19.3352 6.89936 19.3427 6.81822C19.3497 6.73992 19.4606 6.92428 19.5173 6.93806C19.5464 6.93076 19.5308 6.81316 19.4757 6.71379C19.4383 6.64622 19.3198 6.33889 19.2423 6.19069C19.2059 6.12059 19.1971 6.07998 19.1802 6.07167C19.1634 6.06306 19.0344 6.37313 19.05 6.40686C19.0882 6.46824 19.1143 6.49752 19.1222 6.60753C19.1304 6.71754 19.2189 7.52507 19.2962 8.11978C19.3544 8.56853 19.4831 9.38366 19.4996 9.98617C19.5051 10.1828 19.4801 10.3239 19.4585 10.4027C19.403 10.5234 19.3125 10.6576 18.9947 10.9121C18.9456 10.5524 18.9989 10.2602 18.9524 10.2331C18.8999 10.2395 18.8915 10.4072 18.8856 10.614C18.8827 10.7095 18.8864 10.8418 18.9023 10.9839C18.5119 11.2775 17.9961 11.5448 17.7539 11.6875C17.6118 11.7714 17.6631 11.791 17.7833 11.7491C17.9036 11.7071 18.5646 11.5121 18.9174 11.3033L18.9554 11.2796C18.9733 11.3496 18.9951 11.4174 19.0217 11.4799C19.1405 11.7574 19.3101 11.9223 19.4939 11.9061C19.6484 11.8928 19.7605 11.7067 19.8583 11.4848C19.9572 11.2601 20.1242 10.8334 20.288 10.6747C20.3509 10.6135 20.416 10.5651 20.4793 10.536C20.4793 10.536 20.5912 10.494 20.6941 10.5696C20.731 10.597 20.7586 10.6359 20.776 10.6794C20.8166 10.7794 20.8646 10.9067 20.9628 11.0132C21.1358 11.2006 21.4139 11.1619 21.6225 11.0529C21.8308 10.9438 21.9372 10.7737 21.9835 10.5715C22.0626 10.2255 22.05 9.8711 22.0349 9.55627C22.0174 9.19697 21.9664 8.82977 21.9374 8.44069C21.928 8.31559 21.9098 8.14156 21.8889 7.95285C22.092 8.21662 22.303 8.48435 22.4309 8.63072C22.4751 8.68127 22.5216 8.73739 22.5694 8.79665C22.6076 9.38558 22.6443 10.1225 22.6637 10.4318C22.6829 10.7399 22.6705 11.1273 22.6683 11.1946C22.6659 11.262 22.6993 11.2505 22.7471 11.1009C22.8112 10.9003 22.8514 10.374 22.8374 10.0251C22.829 9.81771 22.8106 9.43968 22.7907 9.0821C22.9484 9.2929 23.0981 9.50572 23.1955 9.64936C23.3686 9.90442 23.5276 10.2077 23.5833 10.3969C23.6388 10.5864 23.6449 10.6425 23.6557 10.6762C23.6665 10.7099 23.7143 10.5718 23.7067 10.3553Z" fill="white"/>
<path d="M20.7845 17.5607C20.7688 17.5104 20.721 17.4735 20.6637 17.4735C20.6064 17.4735 20.5586 17.5104 20.5429 17.5607H20.0005C19.995 17.493 20.0004 17.425 20.0174 17.3587L21.1371 17.358L21.1683 17.4171C21.1965 17.4704 21.2321 17.5185 21.2733 17.5607L20.7845 17.5607ZM21.5258 16.9753H20.1802C20.2836 16.8914 20.3378 16.7688 20.3233 16.6449C20.314 16.5668 20.2452 16.5084 20.1613 16.5005H20.1192C20.0171 16.5117 19.9431 16.5944 19.9539 16.6853L19.958 16.7203L19.963 16.774C19.9685 16.8415 19.9632 16.9093 19.9463 16.9753H10C10.1477 17.2171 10.417 17.3653 10.7078 17.3651L19.7839 17.3588C19.6801 17.4429 19.6257 17.5656 19.6403 17.6898C19.6511 17.7807 19.7423 17.8454 19.8444 17.8342C19.9463 17.823 20.0203 17.7403 20.0097 17.6493L20.0056 17.6144H20.539C20.5483 17.673 20.6003 17.7179 20.6637 17.7179C20.727 17.7179 20.779 17.673 20.7885 17.6144H21.3311V17.613C21.4444 17.7034 21.5883 17.7554 21.7406 17.7554C21.8839 17.7554 22 17.6434 22 17.5052V17.4329C22 17.1803 21.7877 16.9753 21.5258 16.9753" fill="white"/>
</g>
<defs>
<clipPath id="clip0_299_31615">
<rect width="32" height="24" rx="4" fill="white"/>
</clipPath>
</defs>
</svg>
