<svg width="16" height="16" viewBox="0 0 16 16" fill="none" xmlns="http://www.w3.org/2000/svg">
<path d="M1.33398 8H6.00065C7.13398 8 8.00065 8.86667 8.00065 10C8.00065 11.1333 7.13398 12 6.00065 12H2.00065C1.60065 12 1.33398 11.7333 1.33398 11.3333V4.66667C1.33398 4.26667 1.60065 4 2.00065 4H5.33398C6.46732 4 7.33398 4.86667 7.33398 6C7.33398 7.13333 6.46732 8 5.33398 8H1.33398Z" stroke="#2A6CB5" stroke-miterlimit="10"/>
<path d="M9.33398 9.33366H14.6673C14.6673 7.86699 13.4673 6.66699 12.0007 6.66699C10.534 6.66699 9.33398 7.86699 9.33398 9.33366ZM9.33398 9.33366C9.33398 10.8003 10.534 12.0003 12.0007 12.0003H13.134" stroke="#2A6CB5" stroke-miterlimit="10" stroke-linecap="round" stroke-linejoin="round"/>
<path d="M13 5H11" stroke="#2A6CB5" stroke-miterlimit="10" stroke-linecap="round" stroke-linejoin="round"/>
</svg>
