<svg width="25" height="24" viewBox="0 0 25 24" fill="none" xmlns="http://www.w3.org/2000/svg">
<path d="M3.66992 7.43994L12.4999 12.5499L21.2699 7.46991" stroke="#292D32" stroke-width="1.5" stroke-linecap="round" stroke-linejoin="round"/>
<path d="M12.5 21.61V12.54" stroke="#292D32" stroke-width="1.5" stroke-linecap="round" stroke-linejoin="round"/>
<path d="M22.1106 9.17V14.83C22.1106 14.88 22.1106 14.92 22.1006 14.97C21.4006 14.36 20.5006 14 19.5006 14C18.5606 14 17.6906 14.33 17.0006 14.88C16.0806 15.61 15.5006 16.74 15.5006 18C15.5006 18.75 15.7106 19.46 16.0806 20.06C16.1706 20.22 16.2806 20.37 16.4006 20.51L14.5706 21.52C13.4306 22.16 11.5706 22.16 10.4306 21.52L5.09061 18.56C3.88061 17.89 2.89062 16.21 2.89062 14.83V9.17C2.89062 7.79 3.88061 6.11002 5.09061 5.44002L10.4306 2.48C11.5706 1.84 13.4306 1.84 14.5706 2.48L19.9106 5.44002C21.1206 6.11002 22.1106 7.79 22.1106 9.17Z" stroke="#292D32" stroke-width="1.5" stroke-linecap="round" stroke-linejoin="round"/>
<path d="M23.5 18C23.5 19.2 22.97 20.27 22.14 21C21.43 21.62 20.51 22 19.5 22C17.29 22 15.5 20.21 15.5 18C15.5 16.74 16.08 15.61 17 14.88C17.69 14.33 18.56 14 19.5 14C21.71 14 23.5 15.79 23.5 18Z" stroke="#292D32" stroke-width="1.5" stroke-miterlimit="10" stroke-linecap="round" stroke-linejoin="round"/>
<path d="M19.75 16.75V18.25L18.5 19" stroke="#292D32" stroke-width="1.5" stroke-miterlimit="10" stroke-linecap="round" stroke-linejoin="round"/>
</svg>
