<svg width="40" height="40" viewBox="0 0 40 40" fill="none" xmlns="http://www.w3.org/2000/svg">
<path d="M11.2682 36.6663H28.7349C33.3349 36.6663 35.1682 33.8497 35.3849 30.4163L36.2516 16.6497C36.4849 13.0497 33.6182 9.99967 30.0016 9.99967C28.9849 9.99967 28.0516 9.41634 27.5849 8.51634L26.3849 6.09967C25.6182 4.58301 23.6182 3.33301 21.9182 3.33301H18.1016C16.3849 3.33301 14.3849 4.58301 13.6182 6.09967L12.4182 8.51634C11.9516 9.41634 11.0182 9.99967 10.0016 9.99967C6.38491 9.99967 3.51825 13.0497 3.75158 16.6497L4.61825 30.4163C4.81825 33.8497 6.66825 36.6663 11.2682 36.6663Z" stroke="white" stroke-width="1.5" stroke-linecap="round" stroke-linejoin="round"/>
<path d="M17.5 13.333H22.5" stroke="white" stroke-width="1.5" stroke-linecap="round" stroke-linejoin="round"/>
<path d="M19.9987 30.0003C22.982 30.0003 25.4154 27.567 25.4154 24.5837C25.4154 21.6003 22.982 19.167 19.9987 19.167C17.0154 19.167 14.582 21.6003 14.582 24.5837C14.582 27.567 17.0154 30.0003 19.9987 30.0003Z" stroke="white" stroke-width="1.5" stroke-linecap="round" stroke-linejoin="round"/>
</svg>
