<svg width="16" height="16" viewBox="0 0 16 16" fill="none" xmlns="http://www.w3.org/2000/svg">
<path d="M8.00049 9.3335H8.66716C9.40049 9.3335 10.0005 8.7335 10.0005 8.00016V1.3335H4.00049C3.00049 1.3335 2.12716 1.88682 1.67383 2.70015" stroke="#4D4D4D" stroke-linecap="round" stroke-linejoin="round"/>
<path d="M1.33398 11.3335C1.33398 12.4402 2.22732 13.3335 3.33398 13.3335H4.00065C4.00065 12.6002 4.60065 12.0002 5.33398 12.0002C6.06732 12.0002 6.66732 12.6002 6.66732 13.3335H9.33398C9.33398 12.6002 9.93398 12.0002 10.6673 12.0002C11.4007 12.0002 12.0007 12.6002 12.0007 13.3335H12.6673C13.774 13.3335 14.6673 12.4402 14.6673 11.3335V9.3335H12.6673C12.3007 9.3335 12.0007 9.0335 12.0007 8.66683V6.66683C12.0007 6.30016 12.3007 6.00016 12.6673 6.00016H13.5273L12.3873 4.00684C12.1473 3.5935 11.7073 3.3335 11.2273 3.3335H10.0007V8.00016C10.0007 8.7335 9.40065 9.3335 8.66732 9.3335H8.00065" stroke="#4D4D4D" stroke-linecap="round" stroke-linejoin="round"/>
<path d="M5.33333 14.6667C6.06971 14.6667 6.66667 14.0697 6.66667 13.3333C6.66667 12.597 6.06971 12 5.33333 12C4.59695 12 4 12.597 4 13.3333C4 14.0697 4.59695 14.6667 5.33333 14.6667Z" stroke="#4D4D4D" stroke-linecap="round" stroke-linejoin="round"/>
<path d="M10.6673 14.6667C11.4037 14.6667 12.0007 14.0697 12.0007 13.3333C12.0007 12.597 11.4037 12 10.6673 12C9.93094 12 9.33398 12.597 9.33398 13.3333C9.33398 14.0697 9.93094 14.6667 10.6673 14.6667Z" stroke="#4D4D4D" stroke-linecap="round" stroke-linejoin="round"/>
<path d="M14.6667 8V9.33333H12.6667C12.3 9.33333 12 9.03333 12 8.66667V6.66667C12 6.3 12.3 6 12.6667 6H13.5267L14.6667 8Z" stroke="#4D4D4D" stroke-linecap="round" stroke-linejoin="round"/>
<path d="M1.33398 5.3335H5.33398" stroke="#4D4D4D" stroke-linecap="round" stroke-linejoin="round"/>
<path d="M1.33398 7.3335H4.00065" stroke="#4D4D4D" stroke-linecap="round" stroke-linejoin="round"/>
<path d="M1.33398 9.3335H2.66732" stroke="#4D4D4D" stroke-linecap="round" stroke-linejoin="round"/>
</svg>
