<svg width="16" height="16" viewBox="0 0 16 16" fill="none" xmlns="http://www.w3.org/2000/svg">
<path d="M1.33301 8.40674H12.6663" stroke="#2A6CB5" stroke-miterlimit="10" stroke-linecap="round" stroke-linejoin="round"/>
<path d="M12.6663 6.85337V11.62C12.6463 13.52 12.1263 14 10.1463 14H3.85303C1.83969 14 1.33301 13.5 1.33301 11.5134V6.85337C1.33301 5.05337 1.75301 4.47337 3.33301 4.38003C3.49301 4.37337 3.66636 4.3667 3.85303 4.3667H10.1463C12.1597 4.3667 12.6663 4.8667 12.6663 6.85337Z" stroke="#2A6CB5" stroke-linecap="round" stroke-linejoin="round"/>
<path d="M14.6663 4.48667V9.14667C14.6663 10.9467 14.2463 11.5267 12.6663 11.62V6.85333C12.6663 4.86667 12.1597 4.36667 10.1463 4.36667H3.85303C3.66636 4.36667 3.49301 4.37333 3.33301 4.38C3.35301 2.48 3.87303 2 5.85303 2H12.1463C14.1597 2 14.6663 2.5 14.6663 4.48667Z" stroke="#2A6CB5" stroke-linecap="round" stroke-linejoin="round"/>
<path d="M3.5 11.8733H4.64665" stroke="#2A6CB5" stroke-miterlimit="10" stroke-linecap="round" stroke-linejoin="round"/>
<path d="M6.07324 11.8733H8.36658" stroke="#2A6CB5" stroke-miterlimit="10" stroke-linecap="round" stroke-linejoin="round"/>
</svg>
