<svg width="16" height="16" viewBox="0 0 16 16" fill="none" xmlns="http://www.w3.org/2000/svg">
<path d="M7.33398 1.3335H6.00065C2.66732 1.3335 1.33398 2.66683 1.33398 6.00016V10.0002C1.33398 13.3335 2.66732 14.6668 6.00065 14.6668H10.0007C13.334 14.6668 14.6673 13.3335 14.6673 10.0002V8.66683" stroke="#2A6CB5" stroke-width="1.5" stroke-linecap="round" stroke-linejoin="round"/>
<path d="M10.6933 2.01326L5.43992 7.26659C5.23992 7.46659 5.03992 7.85992 4.99992 8.14659L4.71325 10.1533C4.60659 10.8799 5.11992 11.3866 5.84659 11.2866L7.85325 10.9999C8.13325 10.9599 8.52659 10.7599 8.73325 10.5599L13.9866 5.30659C14.8933 4.39992 15.3199 3.34659 13.9866 2.01326C12.6533 0.679924 11.5999 1.10659 10.6933 2.01326Z" stroke="#2A6CB5" stroke-width="1.5" stroke-miterlimit="10" stroke-linecap="round" stroke-linejoin="round"/>
<path d="M9.93945 2.7666C10.3861 4.35993 11.6328 5.6066 13.2328 6.05993" stroke="#2A6CB5" stroke-width="1.5" stroke-miterlimit="10" stroke-linecap="round" stroke-linejoin="round"/>
</svg>
