<svg width="163" height="163" viewBox="0 0 163 163" fill="none" xmlns="http://www.w3.org/2000/svg">
<g clip-path="url(#clip0_278_19058)">
<path d="M35.334 90.6667H89.0007" stroke="#808080" stroke-width="3" stroke-miterlimit="10" stroke-linecap="round" stroke-linejoin="round"/>
<path d="M54 128H63.3333" stroke="#808080" stroke-width="3" stroke-miterlimit="10" stroke-linecap="round" stroke-linejoin="round"/>
<path d="M75 128H93.6667" stroke="#808080" stroke-width="3" stroke-miterlimit="10" stroke-linecap="round" stroke-linejoin="round"/>
<path d="M128.667 107.14V126.18C128.667 142.56 124.514 146.667 107.947 146.667H56.054C39.4873 146.667 35.334 142.56 35.334 126.18V87.8199C35.334 71.4399 39.4873 67.3333 56.054 67.3333H89.0007" stroke="#808080" stroke-width="3" stroke-linecap="round" stroke-linejoin="round"/>
<path d="M106.773 89.218L124.88 71.1113" stroke="#808080" stroke-width="3" stroke-linecap="round"/>
<path d="M124.88 89.218L106.773 71.1113" stroke="#808080" stroke-width="3" stroke-linecap="round"/>
<path d="M112.062 40.75C114.077 40.75 116.047 40.1525 117.722 39.0331C119.398 37.9137 120.703 36.3226 121.475 34.4611C122.246 32.5996 122.447 30.5512 122.054 28.575C121.661 26.5988 120.691 24.7836 119.266 23.3589C117.841 21.9341 116.026 20.9638 114.05 20.5708C112.074 20.1777 110.025 20.3794 108.164 21.1505C106.302 21.9215 104.711 23.2273 103.592 24.9026C102.472 26.578 101.875 28.5476 101.875 30.5625C101.875 33.2644 102.948 35.8556 104.859 37.7662C106.769 39.6767 109.361 40.75 112.062 40.75ZM112.062 25.4688C113.07 25.4688 114.055 25.7675 114.892 26.3272C115.73 26.8869 116.383 27.6825 116.769 28.6132C117.154 29.544 117.255 30.5682 117.058 31.5562C116.862 32.5443 116.377 33.452 115.664 34.1643C114.952 34.8767 114.044 35.3618 113.056 35.5584C112.068 35.7549 111.044 35.6541 110.113 35.2685C109.182 34.883 108.387 34.2301 107.827 33.3924C107.267 32.5548 106.969 31.57 106.969 30.5625C106.969 29.2116 107.505 27.9159 108.461 26.9607C109.416 26.0054 110.712 25.4688 112.062 25.4688Z" fill="#2A6CB5"/>
<path d="M40.75 45.8438C40.75 43.8289 40.1525 41.8592 39.0331 40.1839C37.9137 38.5086 36.3226 37.2028 34.4611 36.4317C32.5996 35.6607 30.5512 35.4589 28.575 35.852C26.5988 36.2451 24.7836 37.2154 23.3589 38.6401C21.9341 40.0649 20.9638 41.8801 20.5708 43.8563C20.1777 45.8325 20.3794 47.8808 21.1505 49.7423C21.9215 51.6039 23.2273 53.1949 24.9026 54.3144C26.578 55.4338 28.5476 56.0313 30.5625 56.0313C33.2644 56.0313 35.8556 54.9579 37.7662 53.0474C39.6767 51.1369 40.75 48.5456 40.75 45.8438ZM25.4688 45.8438C25.4688 44.8363 25.7675 43.8515 26.3272 43.0138C26.8869 42.1762 27.6825 41.5233 28.6132 41.1377C29.544 40.7522 30.5682 40.6513 31.5562 40.8479C32.5443 41.0444 33.452 41.5296 34.1643 42.2419C34.8767 42.9543 35.3618 43.8619 35.5584 44.85C35.7549 45.8381 35.6541 46.8623 35.2685 47.7931C34.883 48.7238 34.2301 49.5193 33.3924 50.0791C32.5548 50.6388 31.57 50.9375 30.5625 50.9375C29.2116 50.9375 27.9159 50.4008 26.9607 49.4456C26.0054 48.4903 25.4688 47.1947 25.4688 45.8438Z" fill="#2A6CB5"/>
<path d="M58.2729 33.415C58.7431 33.8948 59.3839 34.1694 60.0557 34.179C60.744 34.1773 61.4036 33.9025 61.8895 33.415L63.6723 31.6321L65.4551 33.415C65.941 33.9025 66.6005 34.1773 67.2888 34.179C67.9606 34.1694 68.6014 33.8948 69.0716 33.415C69.3104 33.1782 69.4998 32.8965 69.6291 32.5861C69.7584 32.2758 69.825 31.9429 69.825 31.6067C69.825 31.2705 69.7584 30.9376 69.6291 30.6272C69.4998 30.3168 69.3104 30.0352 69.0716 29.7984L67.2888 28.0156L69.0716 26.2328C69.5512 25.7532 69.8207 25.1027 69.8207 24.4245C69.8207 23.7462 69.5512 23.0958 69.0716 22.6162C68.5921 22.1366 67.9416 21.8672 67.2634 21.8672C66.5851 21.8672 65.9347 22.1366 65.4551 22.6162L63.6723 24.399L61.8895 22.6162C61.652 22.3787 61.3701 22.1904 61.0598 22.0619C60.7495 21.9333 60.417 21.8672 60.0812 21.8672C59.7453 21.8672 59.4128 21.9333 59.1025 22.0619C58.7923 22.1904 58.5104 22.3787 58.2729 22.6162C58.0354 22.8537 57.8471 23.1356 57.7185 23.4458C57.59 23.7561 57.5239 24.0887 57.5239 24.4245C57.5239 24.7603 57.59 25.0929 57.7185 25.4031C57.8471 25.7134 58.0354 25.9953 58.2729 26.2328L60.0557 28.0156L58.2729 29.7984C58.0342 30.0352 57.8447 30.3168 57.7154 30.6272C57.5861 30.9376 57.5195 31.2705 57.5195 31.6067C57.5195 31.9429 57.5861 32.2758 57.7154 32.5861C57.8447 32.8965 58.0342 33.1782 58.2729 33.415Z" fill="#F9A038"/>
<path d="M143.695 53.4843L145.478 51.7015C145.957 51.2219 146.227 50.5715 146.227 49.8932C146.227 49.215 145.957 48.5645 145.478 48.0849C144.998 47.6054 144.348 47.3359 143.67 47.3359C142.991 47.3359 142.341 47.6054 141.861 48.0849L140.079 49.8678L138.296 48.0849C137.816 47.6054 137.166 47.3359 136.487 47.3359C135.809 47.3359 135.159 47.6054 134.679 48.0849C134.2 48.5645 133.93 49.215 133.93 49.8932C133.93 50.5715 134.2 51.2219 134.679 51.7015L136.462 53.4843L134.679 55.2671C134.44 55.5039 134.251 55.7856 134.122 56.096C133.992 56.4063 133.926 56.7392 133.926 57.0754C133.926 57.4116 133.992 57.7445 134.122 58.0549C134.251 58.3652 134.44 58.6469 134.679 58.8837C135.149 59.3636 135.79 59.6382 136.462 59.6478C137.15 59.6461 137.81 59.3713 138.296 58.8837L140.079 57.1009L141.861 58.8837C142.347 59.3713 143.007 59.6461 143.695 59.6478C144.367 59.6382 145.008 59.3636 145.478 58.8837C145.717 58.6469 145.906 58.3652 146.035 58.0549C146.165 57.7445 146.231 57.4116 146.231 57.0754C146.231 56.7392 146.165 56.4063 146.035 56.096C145.906 55.7856 145.717 55.5039 145.478 55.2671L143.695 53.4843Z" fill="#F9A038"/>
</g>
<defs>
<clipPath id="clip0_278_19058">
<rect width="163" height="163" fill="white"/>
</clipPath>
</defs>
</svg>
