<svg width="32" height="24" viewBox="0 0 32 24" fill="none" xmlns="http://www.w3.org/2000/svg">
<g clip-path="url(#clip0_299_31603)">
<path d="M32.0006 0H0V24.0005H32.0006V0Z" fill="#000066"/>
<path d="M0 0V2.68333L28.423 24.0006H32.0006V21.3173L3.57767 8.00016e-05L0 0ZM32.0006 0V2.68325L3.57767 24.0005H0V21.3172L28.423 0H32.0006Z" fill="white"/>
<path d="M13.3336 0V24.0005H18.667V0H13.3336ZM0 8.00016V16.0003H32.0006V8.00016H0Z" fill="white"/>
<path d="M0 9.60019V14.4003H32.0006V9.60019H0ZM14.4003 0V24.0005H17.6004V0H14.4003Z" fill="#CC0000"/>
<path d="M0 24.0005L10.6669 16.0003H13.052L2.38511 24.0005H0ZM0 0L10.6669 8.00016H8.28177L0 1.78892L0 0ZM18.9486 8.00016L29.6155 0H32.0006L21.3338 8.00016H18.9486ZM32.0006 24.0005L21.3338 16.0003H23.7189L32.0006 22.2116V24.0005Z" fill="#CC0000"/>
</g>
<defs>
<clipPath id="clip0_299_31603">
<rect width="32" height="24" rx="4" fill="white"/>
</clipPath>
</defs>
</svg>
