<svg width="16" height="14" viewBox="0 0 16 14" fill="none" xmlns="http://www.w3.org/2000/svg">
<path d="M14.6663 3.33333H10.6663M3.99967 3.33333H1.33301M14.6663 10.6667H11.9997M5.33301 10.6667H1.33301M6.66634 5.66667C6.97276 5.66667 7.27618 5.60631 7.55927 5.48905C7.84236 5.37179 8.09959 5.19992 8.31626 4.98325C8.53293 4.76658 8.7048 4.50935 8.82206 4.22626C8.93932 3.94317 8.99967 3.63975 8.99967 3.33333C8.99967 3.02692 8.93932 2.7235 8.82206 2.44041C8.7048 2.15731 8.53293 1.90009 8.31626 1.68342C8.09959 1.46675 7.84236 1.29488 7.55927 1.17761C7.27618 1.06035 6.97276 1 6.66634 1C6.0475 1 5.45401 1.24583 5.01643 1.68342C4.57884 2.121 4.33301 2.71449 4.33301 3.33333C4.33301 3.95217 4.57884 4.54566 5.01643 4.98325C5.45401 5.42083 6.0475 5.66667 6.66634 5.66667ZM9.33301 13C9.95185 13 10.5453 12.7542 10.9829 12.3166C11.4205 11.879 11.6663 11.2855 11.6663 10.6667C11.6663 10.0478 11.4205 9.45434 10.9829 9.01675C10.5453 8.57917 9.95185 8.33333 9.33301 8.33333C8.71417 8.33333 8.12068 8.57917 7.68309 9.01675C7.24551 9.45434 6.99967 10.0478 6.99967 10.6667C6.99967 11.2855 7.24551 11.879 7.68309 12.3166C8.12068 12.7542 8.71417 13 9.33301 13Z" stroke="#1A1A1A" stroke-miterlimit="10" stroke-linecap="round" stroke-linejoin="round"/>
</svg>
