<svg width="14" height="14" viewBox="0 0 14 14" fill="none" xmlns="http://www.w3.org/2000/svg">
<path d="M9.42673 5.83337C9.42673 5.83337 9.33923 6.41671 7.5309 8.75004C5.8334 10.9492 8.28926 12.6234 8.58093 12.8159C8.59843 12.8275 8.61591 12.8275 8.63925 12.8159C9.03591 12.5709 13.4517 9.73004 9.42673 5.83337Z" fill="#F9A038"/>
<path d="M8.02678 4.5442C8.02678 3.20253 7.50179 1.97753 6.97679 1.27753C6.80179 1.10253 6.51011 1.16087 6.45177 1.3942C6.21844 2.2692 5.51844 4.13587 3.82677 6.35253C1.66844 9.15253 3.65178 12.1859 5.69345 12.7692C6.80178 13.0609 5.40179 12.1859 5.22679 10.3775C5.05179 8.10253 8.02678 6.41087 8.02678 4.5442Z" fill="#F9A038"/>
</svg>
