<svg width="36" height="36" viewBox="0 0 36 36" fill="none" xmlns="http://www.w3.org/2000/svg">
<rect width="36" height="36" rx="8" fill="#EFF7FE"/>
<path d="M18.0001 19.667H18.8335C19.7501 19.667 20.5001 18.917 20.5001 18.0003V9.66699H13.0001C11.7501 9.66699 10.6585 10.3586 10.0918 11.3753" stroke="#2A6CB5" stroke-linecap="round" stroke-linejoin="round"/>
<path d="M9.66797 22.167C9.66797 23.5503 10.7846 24.667 12.168 24.667H13.0013C13.0013 23.7503 13.7513 23.0003 14.668 23.0003C15.5846 23.0003 16.3346 23.7503 16.3346 24.667H19.668C19.668 23.7503 20.418 23.0003 21.3346 23.0003C22.2513 23.0003 23.0013 23.7503 23.0013 24.667H23.8346C25.218 24.667 26.3346 23.5503 26.3346 22.167V19.667H23.8346C23.3763 19.667 23.0013 19.292 23.0013 18.8337V16.3337C23.0013 15.8753 23.3763 15.5003 23.8346 15.5003H24.9096L23.4846 13.0087C23.1846 12.492 22.6347 12.167 22.0347 12.167H20.5013V18.0003C20.5013 18.917 19.7513 19.667 18.8346 19.667H18.0013" stroke="#2A6CB5" stroke-linecap="round" stroke-linejoin="round"/>
<path d="M14.6667 26.3333C15.5871 26.3333 16.3333 25.5871 16.3333 24.6667C16.3333 23.7462 15.5871 23 14.6667 23C13.7462 23 13 23.7462 13 24.6667C13 25.5871 13.7462 26.3333 14.6667 26.3333Z" stroke="#2A6CB5" stroke-linecap="round" stroke-linejoin="round"/>
<path d="M21.3346 26.3333C22.2551 26.3333 23.0013 25.5871 23.0013 24.6667C23.0013 23.7462 22.2551 23 21.3346 23C20.4142 23 19.668 23.7462 19.668 24.6667C19.668 25.5871 20.4142 26.3333 21.3346 26.3333Z" stroke="#2A6CB5" stroke-linecap="round" stroke-linejoin="round"/>
<path d="M26.3333 18V19.6667H23.8333C23.375 19.6667 23 19.2917 23 18.8333V16.3333C23 15.875 23.375 15.5 23.8333 15.5H24.9083L26.3333 18Z" stroke="#2A6CB5" stroke-linecap="round" stroke-linejoin="round"/>
<path d="M9.66797 14.667H14.668" stroke="#2A6CB5" stroke-linecap="round" stroke-linejoin="round"/>
<path d="M9.66797 17.167H13.0013" stroke="#2A6CB5" stroke-linecap="round" stroke-linejoin="round"/>
<path d="M9.66797 19.667H11.3346" stroke="#2A6CB5" stroke-linecap="round" stroke-linejoin="round"/>
</svg>
