<svg width="36" height="36" viewBox="0 0 36 36" fill="none" xmlns="http://www.w3.org/2000/svg">
<rect width="36" height="36" rx="8" fill="#FFF7ED"/>
<path d="M19.0836 14.7585L20.1836 16.9585C20.3336 17.2585 20.7336 17.5585 21.067 17.6085L23.0586 17.9418C24.3336 18.1585 24.6336 19.0752 23.717 19.9918L22.167 21.5418C21.9086 21.8002 21.7586 22.3085 21.842 22.6752L22.2836 24.6002C22.6336 26.1168 21.8253 26.7085 20.4836 25.9168L18.617 24.8085C18.2753 24.6085 17.7253 24.6085 17.3836 24.8085L15.517 25.9168C14.1753 26.7085 13.367 26.1168 13.717 24.6002L14.1586 22.6752C14.242 22.3168 14.092 21.8085 13.8336 21.5418L12.2836 19.9918C11.367 19.0752 11.667 18.1502 12.942 17.9418L14.9336 17.6085C15.267 17.5502 15.667 17.2585 15.817 16.9585L16.917 14.7585C17.5086 13.5668 18.492 13.5668 19.0836 14.7585Z" stroke="#F9A038" stroke-linecap="round" stroke-linejoin="round"/>
<path d="M13 15.4998V9.6665" stroke="#F9A038" stroke-linecap="round" stroke-linejoin="round"/>
<path d="M23 15.4998V9.6665" stroke="#F9A038" stroke-linecap="round" stroke-linejoin="round"/>
<path d="M18 11.3332V9.6665" stroke="#F9A038" stroke-linecap="round" stroke-linejoin="round"/>
</svg>
