<svg width="24" height="24" viewBox="0 0 24 24" fill="none" xmlns="http://www.w3.org/2000/svg">
<g clip-path="url(#clip0_344_17875)">
<mask id="path-1-outside-1_344_17875" maskUnits="userSpaceOnUse" x="-0.00317383" y="0.183716" width="24" height="24" fill="black">
<rect fill="white" x="-0.00317383" y="0.183716" width="24" height="24"/>
<path d="M12 18V15ZM10.07 2.81997L3.14002 8.36997C2.36002 8.98997 1.86002 10.3 2.03002 11.28L3.36002 19.24C3.60002 20.66 4.96002 21.81 6.40002 21.81H17.6C19.03 21.81 20.4 20.65 20.64 19.24L21.97 11.28C22.13 10.3 21.63 8.98997 20.86 8.36997L13.93 2.82997C12.86 1.96997 11.13 1.96997 10.07 2.81997Z"/>
</mask>
<path d="M12 18V15ZM10.07 2.81997L3.14002 8.36997C2.36002 8.98997 1.86002 10.3 2.03002 11.28L3.36002 19.24C3.60002 20.66 4.96002 21.81 6.40002 21.81H17.6C19.03 21.81 20.4 20.65 20.64 19.24L21.97 11.28C22.13 10.3 21.63 8.98997 20.86 8.36997L13.93 2.82997C12.86 1.96997 11.13 1.96997 10.07 2.81997Z" fill="#2A6CB5"/>
<path d="M10.5 18C10.5 18.8284 11.1716 19.5 12 19.5C12.8284 19.5 13.5 18.8284 13.5 18H10.5ZM13.5 15C13.5 14.1715 12.8284 13.5 12 13.5C11.1716 13.5 10.5 14.1715 10.5 15H13.5ZM10.07 2.81997L11.0077 3.99078L11.0084 3.9902L10.07 2.81997ZM3.14002 8.36997L4.07339 9.54421L4.07768 9.54078L3.14002 8.36997ZM2.03002 11.28L3.50954 11.0328L3.50795 11.0236L2.03002 11.28ZM3.36002 19.24L1.88053 19.4872L1.881 19.4899L3.36002 19.24ZM20.64 19.24L22.1188 19.4917L22.1195 19.4872L20.64 19.24ZM21.97 11.28L23.4495 11.5272L23.4504 11.5217L21.97 11.28ZM20.86 8.36997L21.8008 7.20163L21.7967 7.19834L20.86 8.36997ZM13.93 2.82997L12.9903 3.99914L12.9934 4.0016L13.93 2.82997ZM13.5 18V15H10.5V18H13.5ZM9.13236 1.64916L2.20236 7.19916L4.07768 9.54078L11.0077 3.99078L9.13236 1.64916ZM2.20665 7.19574C1.55641 7.7126 1.09894 8.4433 0.827303 9.15529C0.555743 9.86708 0.410004 10.7172 0.552093 11.5363L3.50795 11.0236C3.48004 10.8627 3.4993 10.5679 3.63024 10.2247C3.7611 9.88165 3.94363 9.64735 4.07339 9.54421L2.20665 7.19574ZM0.550531 11.5272L1.88053 19.4872L4.83951 18.9928L3.50951 11.0328L0.550531 11.5272ZM1.881 19.4899C2.24291 21.6312 4.22762 23.31 6.40002 23.31V20.31C5.69242 20.31 4.95714 19.6887 4.83904 18.99L1.881 19.4899ZM6.40002 23.31H17.6V20.31H6.40002V23.31ZM17.6 23.31C19.7638 23.31 21.7565 21.6201 22.1188 19.4917L19.1613 18.9883C19.0436 19.6798 18.2962 20.31 17.6 20.31V23.31ZM22.1195 19.4872L23.4495 11.5272L20.4905 11.0328L19.1605 18.9928L22.1195 19.4872ZM23.4504 11.5217C23.5833 10.7079 23.4353 9.86328 23.1652 9.15529C22.8953 8.44768 22.443 7.71879 21.8008 7.20163L19.9193 9.53831C20.047 9.64115 20.2298 9.87726 20.3623 10.2247C20.4947 10.5717 20.5168 10.872 20.4896 11.0383L23.4504 11.5217ZM21.7967 7.19834L14.8667 1.65834L12.9934 4.0016L19.9234 9.5416L21.7967 7.19834ZM14.8697 1.6608C13.2539 0.362062 10.7429 0.357685 9.13163 1.64975L11.0084 3.9902C11.5171 3.58226 12.4662 3.57788 12.9903 3.99914L14.8697 1.6608Z" fill="#2A6CB5" mask="url(#path-1-outside-1_344_17875)"/>
</g>
<defs>
<clipPath id="clip0_344_17875">
<rect width="24" height="24" fill="white"/>
</clipPath>
</defs>
</svg>
