<svg width="16" height="16" viewBox="0 0 16 16" fill="none" xmlns="http://www.w3.org/2000/svg">
<path d="M10.8542 14.7332H8.32089C7.94755 14.7332 7.13422 14.6198 6.70089 14.1865L4.68089 12.6265L5.29422 11.8332L7.36089 13.4332C7.52755 13.5932 7.94755 13.7265 8.32089 13.7265H10.8542C11.4542 13.7265 12.1009 13.2465 12.2342 12.7065L13.8476 7.8065C13.9542 7.51316 13.9342 7.2465 13.7942 7.05316C13.6476 6.8465 13.3809 6.7265 13.0542 6.7265H10.3876C10.0409 6.7265 9.72089 6.57983 9.50089 6.3265C9.27422 6.0665 9.17422 5.71983 9.22755 5.35983L9.56089 3.21983C9.64089 2.8465 9.38755 2.4265 9.02755 2.3065C8.70089 2.1865 8.28089 2.35983 8.13422 2.57316L5.40089 6.63983L4.57422 6.0865L7.30755 2.01983C7.72755 1.39316 8.64755 1.09316 9.36755 1.3665C10.2009 1.63983 10.7342 2.55983 10.5476 3.41316L10.2209 5.51316C10.2142 5.55983 10.2142 5.6265 10.2609 5.67983C10.2942 5.71316 10.3409 5.73316 10.3942 5.73316H13.0609C13.7142 5.73316 14.2809 6.0065 14.6142 6.47983C14.9409 6.93983 15.0076 7.5465 14.7942 8.13316L13.2009 12.9865C12.9542 13.9532 11.9276 14.7332 10.8542 14.7332Z" fill="#2A6CB5"/>
<path d="M3.58594 13.9998H2.91927C1.68594 13.9998 1.08594 13.4198 1.08594 12.2331V5.69977C1.08594 4.51311 1.68594 3.93311 2.91927 3.93311H3.58594C4.81927 3.93311 5.41927 4.51311 5.41927 5.69977V12.2331C5.41927 13.4198 4.81927 13.9998 3.58594 13.9998ZM2.91927 4.93311C2.1926 4.93311 2.08594 5.10644 2.08594 5.69977V12.2331C2.08594 12.8264 2.1926 12.9998 2.91927 12.9998H3.58594C4.3126 12.9998 4.41927 12.8264 4.41927 12.2331V5.69977C4.41927 5.10644 4.3126 4.93311 3.58594 4.93311H2.91927Z" fill="#2A6CB5"/>
</svg>
