<svg width="16" height="16" viewBox="0 0 16 16" fill="none" xmlns="http://www.w3.org/2000/svg">
<path d="M4 6.66659V5.33325C4 3.12659 4.66667 1.33325 8 1.33325C11.3333 1.33325 12 3.12659 12 5.33325V6.66659" stroke="#1A1A1A" stroke-linecap="round" stroke-linejoin="round"/>
<path d="M8.00065 12.3333C8.92113 12.3333 9.66732 11.5871 9.66732 10.6667C9.66732 9.74619 8.92113 9 8.00065 9C7.08018 9 6.33398 9.74619 6.33398 10.6667C6.33398 11.5871 7.08018 12.3333 8.00065 12.3333Z" stroke="#1A1A1A" stroke-linecap="round" stroke-linejoin="round"/>
<path d="M11.334 14.6665H4.66732C2.00065 14.6665 1.33398 13.9998 1.33398 11.3332V9.99984C1.33398 7.33317 2.00065 6.6665 4.66732 6.6665H11.334C14.0007 6.6665 14.6673 7.33317 14.6673 9.99984V11.3332C14.6673 13.9998 14.0007 14.6665 11.334 14.6665Z" stroke="#1A1A1A" stroke-linecap="round" stroke-linejoin="round"/>
</svg>
