<svg width="16" height="16" viewBox="0 0 16 16" fill="none" xmlns="http://www.w3.org/2000/svg">
<path d="M14.667 3.99992V5.61325C14.667 6.66658 14.0003 7.33325 12.947 7.33325H10.667V2.67325C10.667 1.93325 11.2737 1.33325 12.0137 1.33325C12.7403 1.33992 13.407 1.63325 13.887 2.11325C14.367 2.59992 14.667 3.26659 14.667 3.99992Z" stroke="#4D4D4D" stroke-width="1.5" stroke-miterlimit="10" stroke-linecap="round" stroke-linejoin="round"/>
<path d="M1.33301 4.66659V13.9999C1.33301 14.5533 1.95967 14.8666 2.39967 14.5333L3.53967 13.6799C3.80634 13.4799 4.17967 13.5066 4.41967 13.7466L5.52634 14.8599C5.78634 15.1199 6.21301 15.1199 6.47301 14.8599L7.59301 13.7399C7.82634 13.5066 8.19967 13.4799 8.45967 13.6799L9.59967 14.5333C10.0397 14.8599 10.6663 14.5466 10.6663 13.9999V2.66659C10.6663 1.93325 11.2663 1.33325 11.9997 1.33325H4.66634H3.99967C1.99967 1.33325 1.33301 2.52659 1.33301 3.99992V4.66659Z" stroke="#4D4D4D" stroke-width="1.5" stroke-miterlimit="10" stroke-linecap="round" stroke-linejoin="round"/>
<path d="M6 8.67334H8" stroke="#4D4D4D" stroke-width="1.5" stroke-linecap="round" stroke-linejoin="round"/>
<path d="M6 6.00659H8" stroke="#4D4D4D" stroke-width="1.5" stroke-linecap="round" stroke-linejoin="round"/>
<path d="M3.99707 8.66675H4.00306" stroke="#4D4D4D" stroke-width="2" stroke-linecap="round" stroke-linejoin="round"/>
<path d="M3.99707 6H4.00306" stroke="#4D4D4D" stroke-width="2" stroke-linecap="round" stroke-linejoin="round"/>
</svg>
