<svg width="16" height="16" viewBox="0 0 16 16" fill="none" xmlns="http://www.w3.org/2000/svg">
<path d="M3.64583 6.00016C4.9345 6.00016 5.97917 4.95549 5.97917 3.66683C5.97917 2.37816 4.9345 1.3335 3.64583 1.3335C2.35717 1.3335 1.3125 2.37816 1.3125 3.66683C1.3125 4.95549 2.35717 6.00016 3.64583 6.00016Z" stroke="#1A1A1A"/>
<path d="M11.3138 10H13.3138C14.0471 10 14.6471 10.6 14.6471 11.3333V13.3333C14.6471 14.0667 14.0471 14.6667 13.3138 14.6667H11.3138C10.5805 14.6667 9.98047 14.0667 9.98047 13.3333V11.3333C9.98047 10.6 10.5805 10 11.3138 10Z" stroke="#1A1A1A"/>
<path d="M7.99915 3.3335H9.78582C11.0191 3.3335 11.5925 4.86016 10.6658 5.6735L5.33915 10.3335C4.41248 11.1402 4.98582 12.6668 6.21248 12.6668H7.99915" stroke="#1A1A1A" stroke-linecap="round" stroke-linejoin="round"/>
<path d="M3.65845 3.66683H3.66616" stroke="#1A1A1A" stroke-width="2" stroke-linecap="round" stroke-linejoin="round"/>
<path d="M12.3245 12.3333H12.3322" stroke="#1A1A1A" stroke-width="2" stroke-linecap="round" stroke-linejoin="round"/>
</svg>
