<svg width="25" height="24" viewBox="0 0 25 24" fill="none" xmlns="http://www.w3.org/2000/svg">
<path d="M23.11 8.27L22.82 5.5C22.4 2.48 21.03 1.25 18.1 1.25H15.74H14.26H11.22H9.74002H7.34002C4.40002 1.25 3.04002 2.48 2.61002 5.53L2.34002 8.28C2.24002 9.35 2.53002 10.39 3.16002 11.2C3.92002 12.19 5.09002 12.75 6.39002 12.75C7.65002 12.75 8.86002 12.12 9.62002 11.11C10.3 12.12 11.46 12.75 12.75 12.75C14.04 12.75 15.17 12.15 15.86 11.15C16.63 12.14 17.82 12.75 19.06 12.75C20.39 12.75 21.59 12.16 22.34 11.12C22.94 10.32 23.21 9.31 23.11 8.27Z" fill="#2A6CB5"/>
<path d="M12.1 16.66C10.83 16.79 9.87 17.87 9.87 19.15V21.89C9.87 22.16 10.09 22.38 10.36 22.38H15.13C15.4 22.38 15.62 22.16 15.62 21.89V19.5C15.63 17.41 14.4 16.42 12.1 16.66Z" fill="#2A6CB5"/>
<path d="M22.12 14.4001V17.3801C22.12 20.1401 19.88 22.3801 17.12 22.3801C16.85 22.3801 16.63 22.1601 16.63 21.8901V19.5001C16.63 18.2201 16.24 17.2201 15.48 16.5401C14.81 15.9301 13.9 15.6301 12.77 15.6301C12.52 15.6301 12.27 15.6401 12 15.6701C10.22 15.8501 8.87 17.3501 8.87 19.1501V21.8901C8.87 22.1601 8.65 22.3801 8.38 22.3801C5.62 22.3801 3.38 20.1401 3.38 17.3801V14.4201C3.38 13.7201 4.07 13.2501 4.72 13.4801C4.99 13.5701 5.26 13.6401 5.54 13.6801C5.66 13.7001 5.79 13.7201 5.91 13.7201C6.07 13.7401 6.23 13.7501 6.39 13.7501C7.55 13.7501 8.69 13.3201 9.59 12.5801C10.45 13.3201 11.57 13.7501 12.75 13.7501C13.94 13.7501 15.04 13.3401 15.9 12.6001C16.8 13.3301 17.92 13.7501 19.06 13.7501C19.24 13.7501 19.42 13.7401 19.59 13.7201C19.71 13.7101 19.82 13.7001 19.93 13.6801C20.24 13.6401 20.52 13.5501 20.8 13.4601C21.45 13.2401 22.12 13.7201 22.12 14.4001Z" fill="#2A6CB5"/>
</svg>
