<svg width="25" height="24" viewBox="0 0 25 24" fill="none" xmlns="http://www.w3.org/2000/svg">
<path d="M3.76001 11.22V15.71C3.76001 20.2 5.56001 22 10.05 22H15.44C19.93 22 21.73 20.2 21.73 15.71V11.22" stroke="#B3B3B3" stroke-width="1.5" stroke-linecap="round" stroke-linejoin="round"/>
<path d="M12.75 12C14.58 12 15.93 10.51 15.75 8.68L15.09 2H10.42L9.74999 8.68C9.56999 10.51 10.92 12 12.75 12Z" stroke="#B3B3B3" stroke-width="1.5" stroke-linecap="round" stroke-linejoin="round"/>
<path d="M19.06 12C21.08 12 22.56 10.36 22.36 8.35L22.08 5.6C21.72 3 20.72 2 18.1 2H15.05L15.75 9.01C15.92 10.66 17.41 12 19.06 12Z" stroke="#B3B3B3" stroke-width="1.5" stroke-linecap="round" stroke-linejoin="round"/>
<path d="M6.39 12C8.04 12 9.53 10.66 9.69 9.01L9.91 6.8L10.39 2H7.34C4.72001 2 3.72 3 3.36 5.6L3.09 8.35C2.89 10.36 4.37 12 6.39 12Z" stroke="#B3B3B3" stroke-width="1.5" stroke-linecap="round" stroke-linejoin="round"/>
<path d="M12.75 17C11.08 17 10.25 17.83 10.25 19.5V22H15.25V19.5C15.25 17.83 14.42 17 12.75 17Z" stroke="#B3B3B3" stroke-width="1.5" stroke-linecap="round" stroke-linejoin="round"/>
</svg>
