<svg width="16" height="16" viewBox="0 0 16 16" fill="none" xmlns="http://www.w3.org/2000/svg">
<path d="M1.38069 3.06643C1.91402 0.759759 5.38735 0.759759 5.91402 3.06643C6.22735 4.41976 5.36735 5.56643 4.62069 6.27976C4.07402 6.79976 3.21402 6.79309 2.66735 6.27976C1.92735 5.56643 1.06735 4.41976 1.38069 3.06643Z" stroke="#2A6CB5"/>
<path d="M10.0467 11.0667C10.58 8.76 14.0733 8.76 14.6067 11.0667C14.92 12.42 14.06 13.5667 13.3067 14.28C12.76 14.8 11.8933 14.7933 11.3467 14.28C10.5933 13.5667 9.73333 12.42 10.0467 11.0667Z" stroke="#4D4D4D"/>
<path d="M7.99915 3.3335H9.78582C11.0191 3.3335 11.5925 4.86016 10.6658 5.6735L5.33915 10.3335C4.41248 11.1402 4.98582 12.6668 6.21248 12.6668H7.99915" stroke="#4D4D4D" stroke-linecap="round" stroke-linejoin="round"/>
<path d="M3.65845 3.66683H3.66616" stroke="#2A6CB5" stroke-width="1.5" stroke-linecap="round" stroke-linejoin="round"/>
<path d="M12.3245 11.6668H12.3322" stroke="#4D4D4D" stroke-width="1.5" stroke-linecap="round" stroke-linejoin="round"/>
</svg>
