<svg width="16" height="16" viewBox="0 0 16 16" fill="none" xmlns="http://www.w3.org/2000/svg">
<g clip-path="url(#clip0_83_10103)">
<path d="M14.4733 6.23895L14.4733 6.23896L14.4744 6.24251C14.5085 6.34698 14.5105 6.45927 14.4801 6.56488C14.4498 6.67034 14.3887 6.76432 14.3046 6.83475C14.3044 6.83485 14.3043 6.83496 14.3042 6.83507L11.48 9.18436L11.2395 9.38445L11.3143 9.68825L12.208 13.3195L12.2079 13.3195L12.2108 13.3303C12.232 13.4087 12.2349 13.491 12.2193 13.5707C12.2037 13.6504 12.1701 13.7255 12.121 13.7901C12.0718 13.8548 12.0085 13.9074 11.9359 13.9437C11.8642 13.9797 11.7854 13.9989 11.7052 14C11.6091 13.999 11.5153 13.9706 11.4347 13.9183L11.4348 13.9182L11.4293 13.9148L8.27306 11.921L8.15072 11.8438H8.00603H7.99353H7.84853L7.72602 11.9213L4.79549 13.7771C4.7954 13.7772 4.79531 13.7772 4.79523 13.7773C4.69009 13.8436 4.56757 13.877 4.44335 13.8733C4.31966 13.8696 4.19986 13.8292 4.09913 13.7574C3.99357 13.6799 3.91361 13.5726 3.86955 13.4492C3.82527 13.3252 3.8193 13.1907 3.85244 13.0633L3.85311 13.0607L4.69686 9.74195L4.7739 9.43892L4.53517 9.23699L1.69767 6.83699L1.69768 6.83699L1.69538 6.83507C1.61106 6.7646 1.54977 6.6705 1.51943 6.56488C1.48909 6.45927 1.49108 6.34698 1.52515 6.24251L1.52566 6.24093C1.55828 6.13973 1.62052 6.05065 1.70433 5.98521C1.78798 5.9199 1.88926 5.88114 1.99513 5.87392C1.99533 5.87391 1.99553 5.87389 1.99573 5.87388L5.68191 5.63647L5.99639 5.61621L6.11379 5.32377L7.51379 1.83627L7.5138 1.83627L7.51512 1.83292C7.55357 1.7351 7.62051 1.65106 7.70726 1.59171C7.79348 1.53271 7.89534 1.50079 7.99978 1.50001C8.10422 1.50079 8.20607 1.53271 8.29229 1.59171C8.37905 1.65106 8.44598 1.73509 8.48444 1.83292L8.48496 1.83425L9.85996 5.303L9.97606 5.59587L10.2903 5.61756L14.0028 5.87381L14.0028 5.87382L14.0059 5.87401C14.1115 5.88066 14.2126 5.91906 14.296 5.98418C14.3794 6.0493 14.4412 6.13811 14.4733 6.23895Z" stroke="#808080"/>
</g>
<defs>
<clipPath id="clip0_83_10103">
<rect width="16" height="16" fill="white"/>
</clipPath>
</defs>
</svg>
