<svg width="40" height="40" viewBox="0 0 40 40" fill="none" xmlns="http://www.w3.org/2000/svg">
<path d="M35 9.96663C29.45 9.41663 23.8667 9.1333 18.3 9.1333C15 9.1333 11.7 9.29997 8.4 9.6333L5 9.96663" stroke="#FF3B30" stroke-width="1.5" stroke-linecap="round" stroke-linejoin="round"/>
<path d="M14.167 8.28337L14.5337 6.10004C14.8003 4.51671 15.0003 3.33337 17.817 3.33337H22.1837C25.0003 3.33337 25.217 4.58337 25.467 6.11671L25.8337 8.28337" stroke="#FF3B30" stroke-width="1.5" stroke-linecap="round" stroke-linejoin="round"/>
<path d="M31.4163 15.2333L30.333 32.0166C30.1497 34.6333 29.9997 36.6666 25.3497 36.6666H14.6497C9.99967 36.6666 9.84967 34.6333 9.66634 32.0166L8.58301 15.2333" stroke="#FF3B30" stroke-width="1.5" stroke-linecap="round" stroke-linejoin="round"/>
<path d="M17.2168 27.5H22.7668" stroke="#FF3B30" stroke-width="1.5" stroke-linecap="round" stroke-linejoin="round"/>
<path d="M15.833 20.8334H24.1663" stroke="#FF3B30" stroke-width="1.5" stroke-linecap="round" stroke-linejoin="round"/>
</svg>
